<svg width="128" height="132" viewBox="0 0 128 132" fill="none" xmlns="http://www.w3.org/2000/svg">
<path d="M32.3696 15.0789C37.7208 11.7101 43.8476 12.0554 49.8813 12.0554C49.8952 12.0554 50.5947 12.0887 51.2817 12.1365C51.6257 12.1604 51.9681 12.1885 52.2212 12.2175C52.3474 12.232 52.4531 12.2471 52.5259 12.2625C52.5616 12.27 52.5927 12.2774 52.6147 12.2869C52.625 12.2913 52.6383 12.2986 52.6489 12.3093C52.6546 12.3151 52.6621 12.324 52.6655 12.3367L52.6616 12.3767C52.6288 12.4449 52.5605 12.4954 52.478 12.533C52.3943 12.571 52.2878 12.5999 52.1685 12.6218C51.9296 12.6658 51.6278 12.6833 51.3228 12.6882C51.0173 12.6931 50.7061 12.6851 50.4468 12.6755C50.1859 12.666 49.9798 12.655 49.8813 12.655C43.6681 12.6551 38.3803 13.6545 33.9175 18.4753C29.0931 23.6894 27.2997 31.228 28.8667 38.1121L29.0229 38.7517C30.7462 45.3396 35.6285 51.0911 42.27 53.0535C44.1735 53.614 46.2093 53.7546 48.2632 53.7546C49.2901 53.7546 50.3214 53.7195 51.3423 53.6843C52.3627 53.6492 53.3735 53.613 54.3589 53.613C54.3779 53.6133 55.0741 53.6475 55.7583 53.6951C56.1021 53.719 56.4447 53.7461 56.6978 53.7751C56.8238 53.7896 56.9296 53.8047 57.0024 53.8201C57.0381 53.8276 57.0693 53.836 57.0913 53.8455C57.1016 53.8499 57.1149 53.8572 57.1255 53.8679C57.1311 53.8737 57.1386 53.8826 57.1421 53.8953L57.1411 53.8972L57.1431 53.8982V53.9138H57.1401C57.1396 53.921 57.1411 53.9279 57.1382 53.9343L57.1294 53.9324C57.0944 53.9936 57.0315 54.04 56.9546 54.075C56.8708 54.113 56.7643 54.1419 56.645 54.1638C56.4063 54.2077 56.1051 54.2263 55.8003 54.2312C55.4948 54.2361 55.1828 54.228 54.9233 54.2185C54.6628 54.2089 54.4573 54.198 54.3589 54.198C49.5672 54.198 44.5195 54.5963 39.7563 53.8767C31.5148 52.6311 25.1396 46.1689 23.3071 38.1267C21.3262 29.4668 24.7399 19.8886 32.3696 15.0789Z" fill="#191919" stroke="#191919" stroke-width="0.1"/>
<path d="M60.8511 11.8916C61.359 11.8916 62.8892 11.8955 64.2925 11.9443C64.9938 11.9688 65.6647 12.0045 66.1606 12.0566C66.4081 12.0827 66.6144 12.1128 66.7593 12.1484C66.8313 12.1662 66.892 12.1863 66.9351 12.209C66.9563 12.2202 66.9758 12.2338 66.9907 12.25C67.0061 12.2668 67.019 12.2892 67.019 12.3164V95.7266H75.2817C77.2186 95.7266 79.2572 95.9216 81.1763 95.7266C85.9871 95.2282 90.4603 92.0587 93.2905 88.2773C99.1525 80.4432 99.0434 68.9515 92.9868 61.2578C90.1333 57.6403 85.7763 54.7121 81.1128 54.2139C79.9365 54.0893 78.7264 54.0889 77.5132 54.1201C76.3011 54.1513 75.0834 54.2139 73.8989 54.2139C73.8786 54.2135 73.1831 54.1804 72.4995 54.1328C72.1557 54.1089 71.8132 54.0808 71.5601 54.0518C71.4339 54.0373 71.3282 54.0222 71.2554 54.0068C71.2196 53.9993 71.1885 53.9909 71.1665 53.9814C71.1563 53.9771 71.1429 53.9705 71.1323 53.96C71.1267 53.9543 71.1192 53.9451 71.1157 53.9326C71.112 53.9188 71.114 53.9046 71.1196 53.8926V53.8916C71.1526 53.8235 71.2208 53.7738 71.3032 53.7363C71.387 53.6983 71.4935 53.6694 71.6128 53.6475C71.8515 53.6035 72.1527 53.585 72.4575 53.5801C72.7631 53.5752 73.075 53.5842 73.3345 53.5938C73.595 53.6033 73.8005 53.6133 73.8989 53.6133C76.9892 53.6133 80.2178 53.4412 83.3726 53.6543C86.528 53.8674 89.6172 54.4667 92.438 56.0098H92.439L92.4546 56.0176L92.4556 56.0186C100.38 60.3548 103.764 69.2036 102.903 77.499C102.042 85.795 96.9338 93.5495 87.8647 95.6924C83.3725 96.7489 78.4242 96.3262 73.8599 96.3262H59.6792C59.6638 96.3261 58.965 96.2929 58.2788 96.2451C57.9352 96.2212 57.5933 96.1941 57.3403 96.165C57.2143 96.1506 57.1085 96.1354 57.0356 96.1201C57 96.1126 56.9688 96.1041 56.9468 96.0947C56.9365 96.0903 56.9222 96.083 56.9116 96.0723C56.906 96.0665 56.8994 96.0573 56.896 96.0449C56.8923 96.0312 56.8933 96.0169 56.8989 96.0049H56.8999C56.9328 95.9366 57.0009 95.8862 57.0835 95.8486C57.1671 95.8107 57.2731 95.7827 57.3921 95.7607C57.6309 95.7168 57.9328 95.6983 58.2378 95.6934C58.5433 95.6885 58.8553 95.6965 59.1147 95.7061C59.3753 95.7156 59.5808 95.7266 59.6792 95.7266H61.4497V12.4834C61.0569 12.4837 60.2503 12.4866 59.5288 12.4707C59.1521 12.4624 58.7974 12.4495 58.5366 12.4277C58.4066 12.4169 58.2979 12.4036 58.2212 12.3877C58.1833 12.3798 58.1501 12.3706 58.1255 12.3594C58.1133 12.3538 58.1 12.3461 58.0894 12.3359C58.0785 12.3255 58.0669 12.3084 58.0669 12.2852C58.0669 12.2502 58.0872 12.2239 58.1079 12.2061C58.1289 12.188 58.1568 12.1725 58.188 12.1592C58.2511 12.1323 58.3397 12.1085 58.4438 12.0869C58.6528 12.0435 58.9366 12.0074 59.2388 11.9785C59.8436 11.9208 60.5289 11.8916 60.8511 11.8916Z" fill="#191919" stroke="#191919" stroke-width="0.1"/>
<path d="M120.913 122.727L123.14 117.395C123.46 116.614 123.62 116.18 123.62 116.094C123.62 115.704 123.187 115.5 122.319 115.485V114.946H125.694V115.485C125.171 115.508 124.788 115.649 124.546 115.907C124.304 116.157 124.003 116.715 123.644 117.583L119.366 127.907C118.96 128.891 118.601 129.559 118.288 129.911C117.976 130.27 117.632 130.45 117.257 130.45C116.749 130.45 116.495 130.219 116.495 129.758C116.495 129.227 116.901 128.778 117.714 128.411C118.19 128.2 118.507 128.02 118.663 127.872C118.827 127.723 118.987 127.454 119.144 127.063L120.058 124.778L116.448 117.043C116.128 116.364 115.862 115.934 115.651 115.754C115.44 115.575 115.081 115.485 114.573 115.485V114.946H118.979V115.485C118.206 115.508 117.819 115.668 117.819 115.965C117.819 116.083 117.972 116.465 118.276 117.114L120.913 122.727Z" fill="#191919"/>
<path d="M114.269 115.485H111.374V121.286C111.374 122.176 111.413 122.778 111.491 123.09C111.569 123.395 111.733 123.641 111.983 123.829C112.241 124.016 112.515 124.11 112.804 124.11C113.366 124.11 113.854 123.79 114.269 123.149L114.644 123.372C114.401 123.887 114.042 124.278 113.565 124.543C113.097 124.801 112.62 124.93 112.136 124.93C111.573 124.93 111.077 124.766 110.647 124.438C110.226 124.102 109.96 123.711 109.851 123.266C109.749 122.821 109.698 122.04 109.698 120.922V115.485H108.304V114.946C108.944 114.93 109.519 114.661 110.026 114.137C110.534 113.614 110.858 112.879 110.999 111.934H111.374V114.946H114.269V115.485Z" fill="#191919"/>
<path d="M105.597 114.946V121.239C105.597 122.286 105.612 122.942 105.644 123.208C105.675 123.473 105.788 123.672 105.983 123.805C106.187 123.938 106.546 124.004 107.062 124.004V124.543C105.874 124.559 105.007 124.684 104.46 124.918H104.319C104.069 124.489 103.937 123.747 103.921 122.692C103.444 123.434 102.897 123.993 102.28 124.368C101.671 124.743 100.995 124.93 100.253 124.93C99.6123 124.93 99.0459 124.786 98.5537 124.497C98.0615 124.2 97.7217 123.84 97.5342 123.418C97.3545 122.997 97.2646 122.36 97.2646 121.508V118.239C97.2646 117.129 97.2451 116.454 97.2061 116.211C97.167 115.961 97.042 115.778 96.8311 115.661C96.6279 115.543 96.249 115.485 95.6943 115.485V114.946H98.9521V121.602C98.9521 122.258 98.9912 122.735 99.0693 123.032C99.1475 123.329 99.3467 123.59 99.667 123.817C99.9873 124.036 100.358 124.145 100.78 124.145C101.382 124.145 101.956 123.95 102.503 123.559C103.05 123.161 103.421 122.743 103.616 122.305C103.819 121.86 103.921 121.227 103.921 120.407V118.239C103.921 117.192 103.909 116.555 103.886 116.329C103.862 116.102 103.761 115.907 103.581 115.743C103.409 115.571 103.046 115.485 102.491 115.485H102.245V114.946H105.597Z" fill="#191919"/>
<path d="M94.4873 122.786H94.9209C94.8506 124.122 94.1943 124.79 92.9521 124.79C92.4209 124.79 91.999 124.649 91.6865 124.368C91.3818 124.086 91.1826 123.668 91.0889 123.114C90.3076 123.668 89.5928 124.086 88.9443 124.368C88.3037 124.649 87.7295 124.79 87.2217 124.79C86.5732 124.79 86.0146 124.602 85.5459 124.227C85.0771 123.852 84.8428 123.356 84.8428 122.739C84.8428 121.934 85.2334 121.231 86.0146 120.629C86.8037 120.028 87.8896 119.442 89.2725 118.872L91.0889 118.133V117.665C91.0889 117 91.0459 116.52 90.96 116.223C90.874 115.926 90.6514 115.661 90.292 115.426C89.9326 115.192 89.46 115.075 88.874 115.075C87.7021 115.075 87.0498 115.465 86.917 116.247C86.792 117.043 86.4639 117.442 85.9326 117.442C85.4561 117.442 85.2178 117.215 85.2178 116.762C85.2178 116.317 85.5342 115.84 86.167 115.333C86.7998 114.817 87.7842 114.559 89.1201 114.559C90.1123 114.559 90.8818 114.715 91.4287 115.028C91.9756 115.34 92.335 115.696 92.5068 116.094C92.6865 116.493 92.7764 117.102 92.7764 117.922V121.801C92.7764 122.708 92.8232 123.29 92.917 123.547C93.0107 123.805 93.2139 123.934 93.5264 123.934C94.042 123.934 94.3623 123.551 94.4873 122.786ZM91.0889 118.684L89.8115 119.2C87.7959 120.02 86.7881 121.051 86.7881 122.293C86.7881 122.786 86.917 123.184 87.1748 123.489C87.4326 123.786 87.7686 123.934 88.1826 123.934C88.5498 123.934 88.9756 123.813 89.46 123.571C89.9443 123.329 90.4873 122.965 91.0889 122.481V118.684Z" fill="#191919"/>
<path d="M83.0029 118.192H76.3115C76.2803 118.653 76.2646 118.997 76.2646 119.223C76.2646 120.911 76.5264 122.18 77.0498 123.032C77.5811 123.875 78.3701 124.297 79.417 124.297C80.8389 124.297 81.8467 123.661 82.4404 122.387H83.0029C82.7529 123.184 82.2568 123.809 81.5146 124.262C80.7725 124.708 79.9639 124.93 79.0889 124.93C78.2764 124.93 77.5068 124.727 76.7803 124.321C76.0615 123.907 75.4717 123.325 75.0107 122.575C74.5498 121.825 74.3193 120.915 74.3193 119.844C74.3193 118.329 74.7646 117.071 75.6553 116.071C76.5459 115.063 77.6592 114.559 78.9951 114.559C80.2529 114.559 81.2256 114.942 81.9131 115.708C82.6006 116.473 82.9639 117.301 83.0029 118.192ZM80.9521 117.723C80.9756 117.543 80.9873 117.383 80.9873 117.243C80.9873 116.555 80.7842 116.024 80.3779 115.649C79.9795 115.266 79.4873 115.075 78.9014 115.075C77.4795 115.075 76.6318 115.958 76.3584 117.723H80.9521Z" fill="#191919"/>
<path d="M67.0068 115.989C68.8115 116.122 70.1514 116.571 71.0264 117.336C71.9014 118.102 72.3389 119.059 72.3389 120.208C72.3389 121.208 72.042 122.071 71.4482 122.797C70.8545 123.516 70.0928 123.989 69.1631 124.215C68.2412 124.434 67.0029 124.543 65.4482 124.543H59.2139V124.004H59.8232C60.5029 124.004 60.9717 123.918 61.2295 123.747C61.4951 123.575 61.6631 123.309 61.7334 122.95C61.8037 122.583 61.8389 121.735 61.8389 120.407V112.672C61.8389 111.383 61.7998 110.551 61.7217 110.176C61.6514 109.801 61.4951 109.543 61.2529 109.403C61.0186 109.262 60.499 109.192 59.6943 109.192H59.3896V108.653L62.0029 108.583L64.9795 108.489C69.3232 108.489 71.4951 109.739 71.4951 112.239C71.4951 113.27 71.1201 114.098 70.3701 114.723C69.6279 115.348 68.5068 115.77 67.0068 115.989ZM64.1357 115.766C64.3311 115.774 64.4951 115.778 64.6279 115.778C66.3154 115.778 67.4678 115.512 68.085 114.981C68.7021 114.45 69.0107 113.59 69.0107 112.403C69.0107 111.575 68.8896 110.934 68.6475 110.481C68.4053 110.028 68.042 109.68 67.5576 109.438C67.0732 109.188 66.2451 109.063 65.0732 109.063C64.7686 109.063 64.4561 109.075 64.1357 109.098V115.766ZM64.1357 116.34V119.879C64.1357 121.387 64.1631 122.344 64.2178 122.75C64.2725 123.157 64.417 123.465 64.6514 123.676C64.8936 123.887 65.3662 123.993 66.0693 123.993C67.3193 123.993 68.2568 123.672 68.8818 123.032C69.5068 122.391 69.8193 121.43 69.8193 120.149C69.8193 118.836 69.4639 117.872 68.7529 117.254C68.0498 116.629 66.8076 116.317 65.0264 116.317C64.7451 116.317 64.4482 116.325 64.1357 116.34Z" fill="#191919"/>
<path d="M51.9717 122.786H52.4053C52.335 124.122 51.6787 124.79 50.4365 124.79C49.9053 124.79 49.4834 124.649 49.1709 124.368C48.8662 124.086 48.667 123.668 48.5732 123.114C47.792 123.668 47.0771 124.086 46.4287 124.368C45.7881 124.649 45.2139 124.79 44.7061 124.79C44.0576 124.79 43.499 124.602 43.0303 124.227C42.5615 123.852 42.3271 123.356 42.3271 122.739C42.3271 121.934 42.7178 121.231 43.499 120.629C44.2881 120.028 45.374 119.442 46.7568 118.872L48.5732 118.133V117.665C48.5732 117 48.5303 116.52 48.4443 116.223C48.3584 115.926 48.1357 115.661 47.7764 115.426C47.417 115.192 46.9443 115.075 46.3584 115.075C45.1865 115.075 44.5342 115.465 44.4014 116.247C44.2764 117.043 43.9482 117.442 43.417 117.442C42.9404 117.442 42.7021 117.215 42.7021 116.762C42.7021 116.317 43.0186 115.84 43.6514 115.333C44.2842 114.817 45.2686 114.559 46.6045 114.559C47.5967 114.559 48.3662 114.715 48.9131 115.028C49.46 115.34 49.8193 115.696 49.9912 116.094C50.1709 116.493 50.2607 117.102 50.2607 117.922V121.801C50.2607 122.708 50.3076 123.29 50.4014 123.547C50.4951 123.805 50.6982 123.934 51.0107 123.934C51.5264 123.934 51.8467 123.551 51.9717 122.786ZM48.5732 118.684L47.2959 119.2C45.2803 120.02 44.2725 121.051 44.2725 122.293C44.2725 122.786 44.4014 123.184 44.6592 123.489C44.917 123.786 45.2529 123.934 45.667 123.934C46.0342 123.934 46.46 123.813 46.9443 123.571C47.4287 123.329 47.9717 122.965 48.5732 122.481V118.684Z" fill="#191919"/>
<path d="M39.3154 108.43V121.25C39.3154 122.274 39.3271 122.918 39.3506 123.184C39.3818 123.45 39.4951 123.653 39.6904 123.793C39.8857 123.934 40.2334 124.004 40.7334 124.004H41.0146V124.543H35.8818V124.004H36.21C36.6787 124.004 37.0107 123.942 37.2061 123.817C37.4092 123.684 37.5303 123.5 37.5693 123.266C37.6084 123.032 37.6279 122.36 37.6279 121.25V111.758C37.6279 110.75 37.5381 110.118 37.3584 109.86C37.1787 109.594 36.7412 109.461 36.0459 109.461V108.922C36.5225 108.922 37.0811 108.868 37.7217 108.758C38.3701 108.649 38.8154 108.54 39.0576 108.43H39.3154Z" fill="#191919"/>
<path d="M31.3584 117.008C31.624 116.313 32.0537 115.731 32.6475 115.262C33.249 114.793 33.835 114.559 34.4053 114.559C34.9209 114.559 35.3271 114.719 35.624 115.04C35.9209 115.36 36.0693 115.688 36.0693 116.024C36.0693 116.25 35.9912 116.446 35.835 116.61C35.6865 116.774 35.5029 116.856 35.2842 116.856C34.8936 116.856 34.5967 116.567 34.3936 115.989C34.2529 115.598 34.042 115.403 33.7607 115.403C33.4248 115.403 33.0225 115.633 32.5537 116.094C32.085 116.547 31.7842 117.02 31.6514 117.512C31.5186 118.004 31.4521 118.68 31.4521 119.54V121.25C31.4521 122.274 31.4639 122.918 31.4873 123.184C31.5186 123.45 31.6318 123.653 31.8271 123.793C32.0225 123.934 32.3701 124.004 32.8701 124.004H33.1982V124.543H28.1006V124.004H28.3467C28.8154 124.004 29.1475 123.942 29.3428 123.817C29.5459 123.684 29.667 123.5 29.7061 123.266C29.7451 123.032 29.7646 122.36 29.7646 121.25V118.543C29.7646 117.512 29.749 116.868 29.7178 116.61C29.6943 116.344 29.585 116.141 29.3896 116C29.1943 115.852 28.8467 115.778 28.3467 115.778H28.1006V115.25C28.835 115.165 29.7959 114.934 30.9834 114.559C31.21 115.176 31.335 115.993 31.3584 117.008Z" fill="#191919"/>
<path d="M26.6826 122.786H27.1162C27.0459 124.122 26.3896 124.79 25.1475 124.79C24.6162 124.79 24.1943 124.649 23.8818 124.368C23.5771 124.086 23.3779 123.668 23.2842 123.114C22.5029 123.668 21.7881 124.086 21.1396 124.368C20.499 124.649 19.9248 124.79 19.417 124.79C18.7686 124.79 18.21 124.602 17.7412 124.227C17.2725 123.852 17.0381 123.356 17.0381 122.739C17.0381 121.934 17.4287 121.231 18.21 120.629C18.999 120.028 20.085 119.442 21.4678 118.872L23.2842 118.133V117.665C23.2842 117 23.2412 116.52 23.1553 116.223C23.0693 115.926 22.8467 115.661 22.4873 115.426C22.1279 115.192 21.6553 115.075 21.0693 115.075C19.8975 115.075 19.2451 115.465 19.1123 116.247C18.9873 117.043 18.6592 117.442 18.1279 117.442C17.6514 117.442 17.4131 117.215 17.4131 116.762C17.4131 116.317 17.7295 115.84 18.3623 115.333C18.9951 114.817 19.9795 114.559 21.3154 114.559C22.3076 114.559 23.0771 114.715 23.624 115.028C24.1709 115.34 24.5303 115.696 24.7021 116.094C24.8818 116.493 24.9717 117.102 24.9717 117.922V121.801C24.9717 122.708 25.0186 123.29 25.1123 123.547C25.2061 123.805 25.4092 123.934 25.7217 123.934C26.2373 123.934 26.5576 123.551 26.6826 122.786ZM23.2842 118.684L22.0068 119.2C19.9912 120.02 18.9834 121.051 18.9834 122.293C18.9834 122.786 19.1123 123.184 19.3701 123.489C19.6279 123.786 19.9639 123.934 20.3779 123.934C20.7451 123.934 21.1709 123.813 21.6553 123.571C22.1396 123.329 22.6826 122.965 23.2842 122.481V118.684Z" fill="#191919"/>
<path d="M14.0264 118.579H14.5303V124.145H14.0264C13.8857 123.512 13.6318 122.954 13.2646 122.469C11.8662 124.047 10.0811 124.836 7.90918 124.836C5.6123 124.836 3.7334 124.11 2.27246 122.657C0.819336 121.204 0.0927734 119.282 0.0927734 116.891C0.0927734 115.321 0.428711 113.844 1.10059 112.461C1.77246 111.071 2.70996 110.04 3.91309 109.368C5.11621 108.696 6.43652 108.36 7.87402 108.36C9.06152 108.36 10.1357 108.606 11.0967 109.098C12.0654 109.583 12.7881 110.122 13.2646 110.715C13.6006 110.051 13.8037 109.364 13.874 108.653H14.3896L14.5303 114.676H14.0264C13.6748 112.536 12.9561 111.047 11.8701 110.211C10.792 109.375 9.57324 108.958 8.21387 108.958C6.5498 108.958 5.22559 109.633 4.24121 110.985C3.26465 112.336 2.77637 114.27 2.77637 116.786C2.77637 119.168 3.31152 120.997 4.38184 122.27C5.45215 123.536 6.78418 124.168 8.37793 124.168C9.22949 124.168 10.1006 123.961 10.9912 123.547C11.8818 123.133 12.585 122.434 13.1006 121.45C13.624 120.458 13.9326 119.5 14.0264 118.579Z" fill="#191919"/>
</svg>
