<svg width="618" height="137" viewBox="0 0 618 137" fill="none" xmlns="http://www.w3.org/2000/svg">
<path d="M8.22 133.56C2.9 130.06 0.799999 124.18 0.799999 117.18C0.799999 91.7 29.22 49.28 45.32 30.66C55.54 18.76 67.16 6.99999 82.14 1.81999C84.66 0.839996 87.04 0.419993 89.28 0.419993C95.3 0.419993 99.36 4.06 99.36 10.92C99.36 13.16 98.94 15.68 97.96 18.62C92.08 36.96 82.42 52.22 70.1 62.86C69.4 63.56 68.56 63.98 67.86 63.98C67.44 63.98 67.16 63.84 66.74 63.7C66.04 63.42 65.48 62.72 65.48 61.88C65.34 60.62 66.04 59.36 67.02 58.66L67.72 58.24C68 58.1 68.7 57.68 68.7 57.4C68.84 56.84 69.54 56.28 70.1 56.28H70.38C71.08 56.42 71.64 56.98 71.64 57.68C82 47.46 90.12 33.74 95.16 17.78C96 15.12 96.42 12.88 96.42 10.92C96.42 5.88 93.76 3.22 89.14 3.22C87.32 3.22 85.22 3.63999 82.98 4.48C68.7 9.51999 57.5 20.86 47.42 32.48C29.92 52.78 3.74 93.94 3.74 117.18C3.74 123.34 5.56 128.24 9.9 131.18C11.86 132.58 14.38 133.14 17.04 133.14C40.98 133.14 90.68 88.06 105.38 73.5C105.66 73.22 106.08 73.08 106.5 73.08C106.78 73.08 107.2 73.22 107.48 73.5C107.76 73.78 107.9 74.2 107.9 74.48C107.9 74.9 107.76 75.32 107.48 75.6C91.24 91.42 42.52 135.94 16.9 135.94C13.54 135.94 10.6 135.24 8.22 133.56ZM145.623 73.64C145.903 73.36 146.323 73.22 146.603 73.22C147.443 73.22 148.143 74.06 148.143 74.9C148.143 75.18 147.863 75.6 147.583 75.88C142.543 80.5 131.623 84.42 123.783 84.42C118.883 84.42 115.103 82.74 115.383 78.4C112.303 81.48 105.723 88.06 101.663 88.06C100.963 88.06 100.263 87.92 99.7034 87.36C99.0034 86.8 98.7234 85.82 98.7234 84.84C98.7234 79.38 106.423 69.72 114.263 69.72C115.663 69.72 116.923 70 118.323 70.7C118.463 70.56 118.603 70.42 118.743 70.42C118.743 70.28 119.863 69.16 119.863 69.16C120.143 68.74 120.563 68.6 120.983 68.6C121.823 68.6 122.523 69.3 122.523 70C122.523 70.42 122.383 70.7 122.103 71.12C119.583 74.48 118.463 77 118.463 78.54C118.463 80.78 120.423 81.76 123.223 81.76C129.943 81.76 141.563 77 145.623 73.64ZM101.663 85.26C104.043 86.38 114.543 75.18 116.223 73.22C115.523 72.94 114.823 72.8 113.983 72.8C107.123 72.8 100.263 83.58 101.663 85.26ZM143.812 99.26C142.132 99.26 141.152 98.42 140.872 98C140.452 97.44 140.312 96.74 140.312 95.9C140.312 90.16 152.492 81.62 152.492 79.8C152.492 79.38 151.792 78.54 148.152 76.58C145.912 75.46 145.072 73.64 145.072 71.96C145.072 68.32 148.852 64.4 151.932 64.4C153.472 64.4 154.592 65.38 154.592 66.78C154.592 68.04 153.612 70.14 149.412 73.92C153.892 76.3 155.432 77.84 155.432 80.08C155.432 83.86 149.552 86.52 143.812 94.08C143.112 94.92 143.112 95.62 143.112 95.9V96.18C144.932 98.42 172.092 81.06 181.332 73.64C181.612 73.36 182.032 73.22 182.452 73.22C182.872 73.22 183.152 73.36 183.432 73.78C183.992 74.34 183.852 75.32 183.292 75.74C176.572 80.78 150.392 99.26 143.812 99.26ZM189.016 91.98C186.216 91.98 183.976 91.28 182.296 89.74C180.476 88.06 179.496 85.54 179.496 82.32C179.496 74.2 185.376 61.46 196.856 44.8C197.136 44.38 197.556 44.1 197.976 44.1C198.256 44.1 198.536 44.24 198.816 44.38C199.236 44.66 199.516 45.08 199.516 45.64C199.516 45.92 199.376 46.2 199.236 46.48C185.656 66.22 182.576 76.72 182.576 82.32C182.576 85.4 183.556 86.94 184.256 87.64C185.376 88.62 186.916 89.04 188.876 89.04C195.736 89.04 207.216 83.3 218.696 73.64C219.256 73.08 220.236 73.22 220.796 73.78C221.216 74.48 221.216 75.32 220.516 75.88C208.336 86.24 196.716 91.98 189.016 91.98ZM258.963 73.64C259.243 73.36 259.663 73.22 259.943 73.22C260.783 73.22 261.483 74.06 261.483 74.9C261.483 75.18 261.203 75.6 260.923 75.88C255.883 80.5 244.963 84.42 237.123 84.42C232.223 84.42 228.443 82.74 228.723 78.4C225.643 81.48 219.063 88.06 215.003 88.06C214.303 88.06 213.603 87.92 213.043 87.36C212.343 86.8 212.063 85.82 212.063 84.84C212.063 79.38 219.763 69.72 227.603 69.72C229.003 69.72 230.263 70 231.663 70.7C231.803 70.56 231.943 70.42 232.083 70.42C232.083 70.28 233.203 69.16 233.203 69.16C233.483 68.74 233.903 68.6 234.323 68.6C235.163 68.6 235.863 69.3 235.863 70C235.863 70.42 235.723 70.7 235.443 71.12C232.923 74.48 231.803 77 231.803 78.54C231.803 80.78 233.763 81.76 236.563 81.76C243.283 81.76 254.903 77 258.963 73.64ZM215.003 85.26C217.383 86.38 227.883 75.18 229.563 73.22C228.863 72.94 228.163 72.8 227.323 72.8C220.463 72.8 213.603 83.58 215.003 85.26ZM411.992 55.16C411.992 83.72 351.372 124.88 305.732 133.28C305.452 133.84 305.312 134.4 305.032 134.96C304.752 135.8 304.052 136.22 303.492 136.22C302.652 136.22 301.672 135.52 301.812 134.54V134.12V133.98C297.472 134.68 292.292 135.38 287.252 135.38C280.112 135.38 273.812 133.98 271.712 129.08C271.292 128.1 271.152 126.98 271.152 126C271.152 118.02 284.452 112 294.252 107.66C299.292 105.42 304.472 103.46 309.652 101.64C314.272 88.76 320.712 76.44 328.552 65.1C328.972 64.54 329.392 64.26 329.952 64.26C330.372 64.26 330.652 64.4 330.932 64.68L349.412 20.72C344.372 24.36 339.472 28.56 335.412 33.04C334.992 33.46 334.712 33.6 334.292 33.6C333.452 33.6 332.612 32.62 332.612 31.78C332.612 31.36 332.752 30.94 333.032 30.66C338.632 24.5 345.072 19.04 351.932 14.56C354.452 8.54 356.412 4.19999 357.252 2.1C357.532 1.26 358.232 0.699998 359.212 0.979994C360.052 1.11999 360.752 2.1 360.472 2.93999L356.832 11.62C363.132 8.11999 377.412 1.54 387.492 0.559991C388.192 0.419993 389.032 0.419993 389.592 0.419993C395.752 0.419993 398.552 3.36 398.552 6.72C398.552 8.54 397.852 10.36 396.452 11.9C392.112 16.8 380.912 23.94 357.952 39.34C366.352 36.54 375.732 34.44 384.412 34.44C392.672 34.44 400.092 36.26 405.272 40.88C409.892 45.08 411.992 49.84 411.992 55.16ZM373.212 99.96C388.052 90.16 408.212 71.82 408.212 55.58C408.212 53.62 407.932 51.66 407.232 49.7C404.292 41.02 395.472 37.8 384.832 37.8C371.672 37.8 355.992 42.7 345.772 47.88C345.492 48.02 345.212 48.02 344.932 48.02C343.952 48.02 343.252 47.18 343.252 46.34C343.252 46.2 343.252 45.92 343.392 45.78C343.532 45.36 343.672 44.94 344.232 44.52C378.812 21.14 389.452 14.28 392.952 11.2C394.352 9.94 395.192 8.4 395.192 7.14C395.192 5.18 393.372 3.49999 389.172 3.63999C381.472 3.77999 367.612 8.95999 354.452 17.36C339.192 53.48 341.292 48.86 320.432 98.28C335.132 93.94 350.392 90.86 365.512 87.78H365.792C366.492 87.78 367.192 88.2 367.472 89.04C367.472 89.18 367.612 89.32 367.612 89.46C367.612 90.16 367.052 90.86 366.352 91C351.932 93.94 337.372 96.88 323.232 100.94C322.112 101.22 320.572 101.64 318.752 102.2C315.532 110.04 311.752 119 307.272 129.64C324.912 125.72 348.292 116.62 373.212 99.96ZM327.572 72.66C321.972 81.62 317.352 90.86 313.712 100.38L316.372 99.54C319.872 91.14 323.652 82.04 327.572 72.66ZM314.692 103.6C313.852 103.74 313.152 104.02 312.312 104.3C310.492 109.48 308.952 114.8 307.692 119.98L314.692 103.6ZM274.652 127.4C275.492 130.34 280.392 132.02 288.372 132.02C292.292 132.02 297.052 131.6 302.372 130.62C303.632 122.08 305.592 113.82 308.252 105.7C292.712 111.16 272.552 119.98 274.652 127.4ZM501.826 73.92C502.106 74.2 502.106 74.48 502.106 74.76C502.106 75.18 501.826 75.74 501.546 76.02C498.046 78.82 491.886 81.76 485.726 83.3C483.626 83.86 480.406 84.42 477.466 84.42C474.806 84.42 472.426 84 470.886 82.46C469.766 81.34 469.346 80.08 469.346 78.54C464.866 83.16 459.406 87.92 456.186 88.2H455.906C454.926 88.2 454.226 87.78 453.806 87.36C453.106 86.66 452.826 85.82 452.826 84.7C452.826 83.44 453.246 81.9 454.086 80.36H453.946C445.686 84.7 432.666 90.44 424.266 90.44C423.566 90.44 422.866 90.44 422.166 90.3C419.786 90.02 417.966 89.04 416.846 87.36C415.726 85.68 415.306 84 415.306 82.18C415.306 78.96 416.706 75.88 418.386 73.64C421.606 69.58 425.526 67.9 428.466 67.9C430.566 67.9 431.966 68.88 432.386 70.42C432.526 70.7 432.526 71.12 432.526 71.4C432.526 72.52 432.106 73.5 431.126 74.2C429.866 75.18 427.906 75.74 425.806 75.74C424.266 75.74 422.726 75.46 421.326 74.9C421.046 75.04 420.906 75.32 420.766 75.46C419.366 77.42 418.106 79.94 418.106 82.32C418.106 83.58 418.386 84.7 419.086 85.68C419.786 86.66 421.046 87.22 422.586 87.36C423.146 87.5 423.706 87.5 424.406 87.5C434.906 87.5 455.206 77 458.846 73.78C461.646 71.4 464.866 69.72 468.086 69.72C469.626 69.72 471.026 70.14 472.426 70.84C472.986 70.14 473.406 69.58 473.826 69.16C474.386 68.46 475.366 68.46 475.926 68.88C476.626 69.44 476.626 70.28 476.206 70.98C473.686 74.34 472.286 77 472.286 78.68C472.286 79.38 472.566 79.94 472.986 80.36C473.826 81.2 475.366 81.48 477.606 81.48C479.706 81.48 482.226 81.2 485.026 80.5C490.906 78.96 496.646 76.3 499.726 73.64C500.006 73.36 500.426 73.36 500.706 73.36C501.126 73.36 501.546 73.5 501.826 73.92ZM428.326 70.84C427.206 70.84 425.526 71.4 423.846 72.52C424.546 72.66 425.246 72.8 425.946 72.8C427.346 72.8 428.606 72.38 429.306 71.82C429.726 71.54 429.726 71.26 429.586 71.12C429.586 71.12 429.166 70.84 428.326 70.84ZM464.866 78.82C466.686 77 468.646 74.9 470.326 73.08C469.626 72.8 468.926 72.66 468.226 72.66C466.126 72.66 463.746 73.5 461.226 75.88L461.086 76.02C460.946 76.02 460.946 76.16 460.946 76.16C460.386 76.58 459.826 77.14 459.406 77.7C456.046 81.34 455.346 84.7 455.766 85.26C455.906 85.26 457.866 85.68 464.866 78.82ZM579.537 73.78C579.677 74.06 579.817 74.34 579.817 74.62C579.817 75.04 579.677 75.46 579.257 75.74C566.377 86.1 554.897 91.42 547.337 91.42C541.737 91.42 538.377 88.34 538.377 82.18C538.377 78.68 539.357 74.06 541.737 68.46C534.737 77.14 526.897 84.7 521.017 84.7C518.917 84.7 517.097 83.72 515.697 81.62C514.577 79.94 514.017 77.42 513.597 74.48C510.097 78.26 504.637 87.92 500.157 87.92C498.057 87.92 497.217 86.24 497.217 83.72C497.217 78.4 501.137 69.3 503.657 66.78C504.217 66.22 505.197 66.22 505.757 66.64C506.457 67.06 506.457 68.18 505.897 68.74C502.957 71.68 499.177 83.16 500.297 84.98C502.537 86.52 510.237 71.12 514.297 71.12C514.717 71.12 515.137 71.26 515.417 71.54C516.957 73.08 516.257 76.86 517.657 79.24C518.637 80.92 519.757 81.62 521.297 81.62C527.317 81.62 537.397 69.86 545.657 58.8C543.977 58.8 542.437 58.66 540.757 58.66C537.397 58.66 534.317 58.94 532.357 59.78C532.217 59.78 532.077 59.92 531.797 59.92C531.237 59.92 530.677 59.5 530.397 58.94V58.52C530.397 57.96 530.677 57.26 531.237 57.12C533.897 56.14 537.537 55.72 541.317 55.72C543.557 55.72 545.797 55.86 547.757 56C549.857 53.2 553.637 47.74 555.597 44.8C555.877 44.1 556.437 43.82 556.857 43.82C557.837 43.82 558.677 45.22 557.977 46.34C555.737 50.12 553.357 53.2 551.537 56.14C555.457 56.28 559.237 56 562.317 55.44H562.597C563.297 55.44 563.857 56 564.137 56.56V56.84C564.137 57.54 563.577 58.24 563.017 58.38C559.097 59.22 554.477 59.22 549.857 59.08C542.997 70.84 541.177 77.98 541.177 82.18C541.177 85.4 542.297 86.94 542.997 87.5C544.117 88.48 545.797 88.9 547.757 88.9C554.617 88.9 565.957 83.16 577.437 73.5C577.717 73.36 578.137 73.22 578.417 73.22C578.837 73.22 579.257 73.36 579.537 73.78ZM617.573 73.78C617.853 74.06 617.993 74.34 617.993 74.62C617.993 75.18 617.713 75.6 617.433 75.88C611.553 81.76 598.813 85.54 586.493 90.44C573.613 122.78 561.573 134.68 553.873 134.68H553.313C549.393 134.68 546.733 130.76 546.733 125.58C546.733 121.24 548.413 116.06 551.493 111.16C559.193 98.84 571.093 93.52 584.253 88.2C586.213 83.02 587.613 79.38 588.593 76.58C585.373 81.34 580.753 88.06 577.253 88.06C576.553 88.06 575.993 87.78 575.433 87.22C575.013 86.8 574.453 86.24 574.453 84.42C574.453 82.74 574.873 80.08 576.553 75.6C578.093 71.4 580.753 66.36 582.293 64.26C582.713 63.7 583.693 63.56 584.253 64.26C584.813 64.68 584.953 65.66 584.393 66.22C581.313 69.3 576.693 82.6 577.393 84.98C580.193 85.12 588.453 69.3 591.673 69.3C593.073 69.3 593.773 70.42 593.493 71.4C591.953 77 589.853 82.04 588.033 86.66C597.833 82.88 609.593 78.26 615.473 73.64C615.753 73.36 616.173 73.22 616.453 73.22C616.873 73.22 617.293 73.5 617.573 73.78ZM553.873 131.74C558.913 131.74 569.833 122.92 582.713 91.98C579.493 93.24 576.413 94.64 573.333 96.18C556.533 104.58 549.533 117.46 549.533 125.44C549.533 126.28 549.673 126.98 549.813 127.68C550.093 129.08 551.073 131.74 553.873 131.74Z" fill="white"/>
</svg>
