<svg width="50" height="41" viewBox="0 0 50 41" fill="none" xmlns="http://www.w3.org/2000/svg">
<g clip-path="url(#clip0_4115_1397)">
<path d="M18.4091 0.163818C18.424 0.164076 18.7588 0.180258 19.0839 0.202881C19.2484 0.214336 19.4133 0.227856 19.536 0.241943C19.5966 0.248907 19.6499 0.256323 19.6884 0.264404C19.7062 0.268175 19.7273 0.273469 19.745 0.281006C19.7525 0.284207 19.7704 0.292466 19.786 0.30835C19.7945 0.317023 19.8072 0.332722 19.8134 0.355225C19.82 0.379867 19.8164 0.405343 19.8065 0.426514V0.42749C19.7794 0.483705 19.7272 0.517046 19.6815 0.537842C19.6335 0.559653 19.5755 0.574646 19.5155 0.585693C19.3952 0.607816 19.2464 0.616527 19.0995 0.618896C18.9514 0.621273 18.8002 0.617612 18.6757 0.613037C18.5489 0.608376 18.4543 0.603294 18.4091 0.603271C15.447 0.603271 12.9446 1.07978 10.8319 3.36206C8.54361 5.8353 7.69143 9.41298 8.43542 12.6814C9.17947 15.9349 11.5436 18.8087 14.7909 19.7683C15.6906 20.0333 16.6555 20.1003 17.6346 20.1003C18.1241 20.1003 18.6161 20.084 19.1044 20.0671C19.592 20.0503 20.077 20.0339 20.5497 20.0339C20.567 20.0343 20.8998 20.0505 21.2235 20.073C21.3882 20.0845 21.5538 20.097 21.6766 20.1111C21.7373 20.1181 21.7906 20.1255 21.829 20.1335C21.8469 20.1373 21.8679 20.1426 21.8856 20.1501C21.8931 20.1533 21.911 20.1616 21.9266 20.1775C21.9352 20.1862 21.9469 20.2019 21.953 20.2244C21.9549 20.2312 21.9545 20.2381 21.955 20.2449L21.9569 20.2458V20.2527H21.9559C21.9557 20.2677 21.9533 20.2826 21.9471 20.2957L21.9423 20.2947C21.9144 20.3472 21.8662 20.3801 21.8221 20.4001C21.7741 20.422 21.7161 20.437 21.6561 20.448C21.5357 20.4702 21.3862 20.4788 21.2391 20.4812C21.0912 20.4836 20.9407 20.4789 20.8163 20.4744C20.6896 20.4697 20.5951 20.4656 20.5497 20.4656C18.2672 20.4656 15.8413 20.6564 13.5565 20.3113C9.5825 19.7106 6.51126 16.595 5.62878 12.7224C4.67524 8.55396 6.31732 3.94042 9.995 1.62183L10.2382 1.47437C12.761 0.00664094 15.6225 0.163818 18.4091 0.163818Z" fill="#E3B6B1" stroke="#E3B6B1" stroke-width="0.2"/>
<path d="M23.6532 0.0856934C23.8962 0.0856935 24.6293 0.0866976 25.3016 0.110107C25.6373 0.121799 25.9603 0.139561 26.2001 0.164795C26.3191 0.177329 26.4216 0.1924 26.496 0.210693C26.5324 0.219653 26.5687 0.230633 26.5975 0.24585C26.6117 0.253363 26.6292 0.264576 26.6444 0.281006C26.6605 0.298577 26.6776 0.327594 26.6776 0.36499V40.1677H30.5526C31.4894 40.1677 32.4502 40.2605 33.3632 40.1677C35.6364 39.9321 37.7573 38.4323 39.1014 36.6365C41.8835 32.9185 41.8319 27.4625 38.9579 23.8113C37.603 22.0937 35.5373 20.7071 33.3329 20.4714C32.7755 20.4124 32.2002 20.4126 31.621 20.4275C31.0444 20.4423 30.4588 20.4724 29.8915 20.4724C29.8811 20.4724 29.5441 20.4561 29.2167 20.4333C29.0521 20.4219 28.8873 20.4084 28.7645 20.3943C28.7037 20.3873 28.6497 20.3799 28.6112 20.3718C28.5933 20.368 28.5722 20.3628 28.5546 20.3552C28.547 20.352 28.53 20.3436 28.5145 20.3279C28.506 20.3192 28.4933 20.3035 28.4872 20.281C28.4806 20.2566 28.4834 20.2317 28.493 20.2107L28.494 20.2087C28.5212 20.1526 28.5733 20.1192 28.619 20.0984C28.6669 20.0766 28.7242 20.0616 28.7841 20.0505C28.9045 20.0284 29.0539 20.0197 29.201 20.0173C29.349 20.015 29.4994 20.0186 29.6239 20.0232C29.7511 20.0279 29.8463 20.033 29.8915 20.033C31.3633 20.033 32.9141 19.9504 34.4257 20.0525C35.9391 20.1547 37.4276 20.4423 38.7889 21.1863L38.8007 21.1921C42.6217 23.2833 44.248 27.5474 43.8339 31.5369C43.4196 35.5275 40.9603 39.2679 36.5858 40.3015C34.4267 40.8092 32.0455 40.6062 29.8729 40.6062H23.0927C23.0791 40.606 22.7436 40.5898 22.4178 40.5671C22.2533 40.5557 22.0884 40.5431 21.9657 40.5291C21.905 40.5221 21.8518 40.5137 21.8134 40.5056C21.7953 40.5018 21.7735 40.4967 21.7557 40.489C21.748 40.4857 21.7309 40.478 21.7157 40.4626C21.7072 40.454 21.6945 40.4383 21.6884 40.4158C21.6817 40.3911 21.6853 40.3657 21.6952 40.3445V40.3435C21.7223 40.2872 21.7744 40.254 21.8202 40.2332C21.8682 40.2113 21.9262 40.1963 21.9862 40.1853C22.1065 40.1632 22.2553 40.1545 22.4022 40.1521C22.5501 40.1497 22.7006 40.1534 22.8251 40.158C22.9522 40.1626 23.0474 40.1677 23.0927 40.1677H23.8632V0.519287C23.6592 0.519539 23.3236 0.521107 23.0194 0.514404C22.839 0.510426 22.667 0.504492 22.5399 0.493896C22.4773 0.488671 22.422 0.48191 22.3807 0.473389C22.3609 0.46928 22.3378 0.463768 22.3182 0.454834C22.3087 0.450477 22.2939 0.44255 22.2802 0.429443C22.273 0.422658 22.2646 0.412383 22.2577 0.39917L22.246 0.349365L22.2509 0.316162C22.2597 0.286303 22.2785 0.265139 22.2919 0.253662C22.3104 0.237783 22.3324 0.227181 22.3505 0.219482C22.3875 0.203753 22.4352 0.191024 22.4862 0.18042C22.5902 0.158814 22.7296 0.141556 22.8749 0.127686C23.1662 0.0998749 23.4965 0.0856934 23.6532 0.0856934Z" fill="#E3B6B1" stroke="#E3B6B1" stroke-width="0.2"/>
</g>
<defs>
<clipPath id="clip0_4115_1397">
<rect width="50" height="40.6294" fill="white" transform="translate(0 0.185303)"/>
</clipPath>
</defs>
</svg>
