<svg width="169" height="39" viewBox="0 0 169 39" fill="none" xmlns="http://www.w3.org/2000/svg">
<path d="M2.42 38.16C0.9 37.16 0.3 35.48 0.3 33.48C0.3 26.2 8.42 14.08 13.02 8.76C15.94 5.36 19.26 2 23.54 0.519998C24.26 0.239999 24.94 0.119998 25.58 0.119998C27.3 0.119998 28.46 1.16 28.46 3.12C28.46 3.76 28.34 4.48 28.06 5.32C26.38 10.56 23.62 14.92 20.1 17.96C19.9 18.16 19.66 18.28 19.46 18.28C19.34 18.28 19.26 18.24 19.14 18.2C18.94 18.12 18.78 17.92 18.78 17.68C18.74 17.32 18.94 16.96 19.22 16.76L19.42 16.64C19.5 16.6 19.7 16.48 19.7 16.4C19.74 16.24 19.94 16.08 20.1 16.08H20.18C20.38 16.12 20.54 16.28 20.54 16.48C23.5 13.56 25.82 9.64 27.26 5.08C27.5 4.32 27.62 3.68 27.62 3.12C27.62 1.68 26.86 0.92 25.54 0.92C25.02 0.92 24.42 1.04 23.78 1.28C19.7 2.72 16.5 5.96 13.62 9.28C8.62 15.08 1.14 26.84 1.14 33.48C1.14 35.24 1.66 36.64 2.9 37.48C3.46 37.88 4.18 38.04 4.94 38.04C11.78 38.04 25.98 25.16 30.18 21C30.26 20.92 30.38 20.88 30.5 20.88C30.58 20.88 30.7 20.92 30.78 21C30.86 21.08 30.9 21.2 30.9 21.28C30.9 21.4 30.86 21.52 30.78 21.6C26.14 26.12 12.22 38.84 4.9 38.84C3.94 38.84 3.1 38.64 2.42 38.16ZM40.8781 21.04C40.9581 20.96 41.0781 20.92 41.1581 20.92C41.3981 20.92 41.5981 21.16 41.5981 21.4C41.5981 21.48 41.5181 21.6 41.4381 21.68C39.9981 23 36.8781 24.12 34.6381 24.12C33.2381 24.12 32.1581 23.64 32.2381 22.4C31.3581 23.28 29.4781 25.16 28.3181 25.16C28.1181 25.16 27.9181 25.12 27.7581 24.96C27.5581 24.8 27.4781 24.52 27.4781 24.24C27.4781 22.68 29.6781 19.92 31.9181 19.92C32.3181 19.92 32.6781 20 33.0781 20.2C33.1181 20.16 33.1581 20.12 33.1981 20.12C33.1981 20.08 33.5181 19.76 33.5181 19.76C33.5981 19.64 33.7181 19.6 33.8381 19.6C34.0781 19.6 34.2781 19.8 34.2781 20C34.2781 20.12 34.2381 20.2 34.1581 20.32C33.4381 21.28 33.1181 22 33.1181 22.44C33.1181 23.08 33.6781 23.36 34.4781 23.36C36.3981 23.36 39.7181 22 40.8781 21.04ZM28.3181 24.36C28.9981 24.68 31.9981 21.48 32.4781 20.92C32.2781 20.84 32.0781 20.8 31.8381 20.8C29.8781 20.8 27.9181 23.88 28.3181 24.36ZM39.5606 28.36C39.0806 28.36 38.8006 28.12 38.7206 28C38.6006 27.84 38.5606 27.64 38.5606 27.4C38.5606 25.76 42.0406 23.32 42.0406 22.8C42.0406 22.68 41.8406 22.44 40.8006 21.88C40.1606 21.56 39.9206 21.04 39.9206 20.56C39.9206 19.52 41.0006 18.4 41.8806 18.4C42.3206 18.4 42.6406 18.68 42.6406 19.08C42.6406 19.44 42.3606 20.04 41.1606 21.12C42.4406 21.8 42.8806 22.24 42.8806 22.88C42.8806 23.96 41.2006 24.72 39.5606 26.88C39.3606 27.12 39.3606 27.32 39.3606 27.4V27.48C39.8806 28.12 47.6406 23.16 50.2806 21.04C50.3606 20.96 50.4806 20.92 50.6006 20.92C50.7206 20.92 50.8006 20.96 50.8806 21.08C51.0406 21.24 51.0006 21.52 50.8406 21.64C48.9206 23.08 41.4406 28.36 39.5606 28.36ZM51.6759 26.28C50.8759 26.28 50.2359 26.08 49.7559 25.64C49.2359 25.16 48.9559 24.44 48.9559 23.52C48.9559 21.2 50.6359 17.56 53.9159 12.8C53.9959 12.68 54.1159 12.6 54.2359 12.6C54.3159 12.6 54.3959 12.64 54.4759 12.68C54.5959 12.76 54.6759 12.88 54.6759 13.04C54.6759 13.12 54.6359 13.2 54.5959 13.28C50.7159 18.92 49.8359 21.92 49.8359 23.52C49.8359 24.4 50.1159 24.84 50.3159 25.04C50.6359 25.32 51.0759 25.44 51.6359 25.44C53.5959 25.44 56.8759 23.8 60.1559 21.04C60.3159 20.88 60.5959 20.92 60.7559 21.08C60.8759 21.28 60.8759 21.52 60.6759 21.68C57.1959 24.64 53.8759 26.28 51.6759 26.28ZM70.8609 21.04C70.9409 20.96 71.0609 20.92 71.1409 20.92C71.3809 20.92 71.5809 21.16 71.5809 21.4C71.5809 21.48 71.5009 21.6 71.4209 21.68C69.9809 23 66.8609 24.12 64.6209 24.12C63.2209 24.12 62.1409 23.64 62.2209 22.4C61.3409 23.28 59.4609 25.16 58.3009 25.16C58.1009 25.16 57.9009 25.12 57.7409 24.96C57.5409 24.8 57.4609 24.52 57.4609 24.24C57.4609 22.68 59.6609 19.92 61.9009 19.92C62.3009 19.92 62.6609 20 63.0609 20.2C63.1009 20.16 63.1409 20.12 63.1809 20.12C63.1809 20.08 63.5009 19.76 63.5009 19.76C63.5809 19.64 63.7009 19.6 63.8209 19.6C64.0609 19.6 64.2609 19.8 64.2609 20C64.2609 20.12 64.2209 20.2 64.1409 20.32C63.4209 21.28 63.1009 22 63.1009 22.44C63.1009 23.08 63.6609 23.36 64.4609 23.36C66.3809 23.36 69.7009 22 70.8609 21.04ZM58.3009 24.36C58.9809 24.68 61.9809 21.48 62.4609 20.92C62.2609 20.84 62.0609 20.8 61.8209 20.8C59.8609 20.8 57.9009 23.88 58.3009 24.36ZM103.783 15.76C103.783 23.92 86.4634 35.68 73.4234 38.08C73.3434 38.24 73.3034 38.4 73.2234 38.56C73.1434 38.8 72.9434 38.92 72.7834 38.92C72.5434 38.92 72.2634 38.72 72.3034 38.44V38.32V38.28C71.0634 38.48 69.5834 38.68 68.1434 38.68C66.1034 38.68 64.3034 38.28 63.7034 36.88C63.5834 36.6 63.5434 36.28 63.5434 36C63.5434 33.72 67.3434 32 70.1434 30.76C71.5834 30.12 73.0634 29.56 74.5434 29.04C75.8634 25.36 77.7034 21.84 79.9434 18.6C80.0634 18.44 80.1834 18.36 80.3434 18.36C80.4634 18.36 80.5434 18.4 80.6234 18.48L85.9034 5.92C84.4634 6.96 83.0634 8.16 81.9034 9.44C81.7834 9.56 81.7034 9.6 81.5834 9.6C81.3434 9.6 81.1034 9.32 81.1034 9.08C81.1034 8.96 81.1434 8.84 81.2234 8.76C82.8234 7 84.6634 5.44 86.6234 4.16C87.3434 2.44 87.9034 1.2 88.1434 0.599999C88.2234 0.36 88.4234 0.199999 88.7034 0.279998C88.9434 0.319998 89.1434 0.599999 89.0634 0.839998L88.0234 3.32C89.8234 2.32 93.9034 0.439999 96.7834 0.159997C96.9834 0.119998 97.2234 0.119998 97.3834 0.119998C99.1434 0.119998 99.9434 0.959999 99.9434 1.92C99.9434 2.44 99.7434 2.96 99.3434 3.4C98.1034 4.8 94.9034 6.84 88.3434 11.24C90.7434 10.44 93.4234 9.84 95.9034 9.84C98.2634 9.84 100.383 10.36 101.863 11.68C103.183 12.88 103.783 14.24 103.783 15.76ZM92.7034 28.56C96.9434 25.76 102.703 20.52 102.703 15.88C102.703 15.32 102.623 14.76 102.423 14.2C101.583 11.72 99.0634 10.8 96.0234 10.8C92.2634 10.8 87.7834 12.2 84.8634 13.68C84.7834 13.72 84.7034 13.72 84.6234 13.72C84.3434 13.72 84.1434 13.48 84.1434 13.24C84.1434 13.2 84.1434 13.12 84.1834 13.08C84.2234 12.96 84.2634 12.84 84.4234 12.72C94.3034 6.04 97.3434 4.08 98.3434 3.2C98.7434 2.84 98.9834 2.4 98.9834 2.04C98.9834 1.48 98.4634 0.999999 97.2634 1.04C95.0634 1.08 91.1034 2.56 87.3434 4.96C82.9834 15.28 83.5834 13.96 77.6234 28.08C81.8234 26.84 86.1834 25.96 90.5034 25.08H90.5834C90.7834 25.08 90.9834 25.2 91.0634 25.44C91.0634 25.48 91.1034 25.52 91.1034 25.56C91.1034 25.76 90.9434 25.96 90.7434 26C86.6234 26.84 82.4634 27.68 78.4234 28.84C78.1034 28.92 77.6634 29.04 77.1434 29.2C76.2234 31.44 75.1434 34 73.8634 37.04C78.9034 35.92 85.5834 33.32 92.7034 28.56ZM79.6634 20.76C78.0634 23.32 76.7434 25.96 75.7034 28.68L76.4634 28.44C77.4634 26.04 78.5434 23.44 79.6634 20.76ZM75.9834 29.6C75.7434 29.64 75.5434 29.72 75.3034 29.8C74.7834 31.28 74.3434 32.8 73.9834 34.28L75.9834 29.6ZM64.5434 36.4C64.7834 37.24 66.1834 37.72 68.4634 37.72C69.5834 37.72 70.9434 37.6 72.4634 37.32C72.8234 34.88 73.3834 32.52 74.1434 30.2C69.7034 31.76 63.9434 34.28 64.5434 36.4ZM128.65 21.12C128.73 21.2 128.73 21.28 128.73 21.36C128.73 21.48 128.65 21.64 128.57 21.72C127.57 22.52 125.81 23.36 124.05 23.8C123.45 23.96 122.53 24.12 121.69 24.12C120.93 24.12 120.25 24 119.81 23.56C119.49 23.24 119.37 22.88 119.37 22.44C118.09 23.76 116.53 25.12 115.61 25.2H115.53C115.25 25.2 115.05 25.08 114.93 24.96C114.73 24.76 114.65 24.52 114.65 24.2C114.65 23.84 114.77 23.4 115.01 22.96H114.97C112.61 24.2 108.89 25.84 106.49 25.84C106.29 25.84 106.09 25.84 105.89 25.8C105.21 25.72 104.69 25.44 104.37 24.96C104.05 24.48 103.93 24 103.93 23.48C103.93 22.56 104.33 21.68 104.81 21.04C105.73 19.88 106.85 19.4 107.69 19.4C108.29 19.4 108.69 19.68 108.81 20.12C108.85 20.2 108.85 20.32 108.85 20.4C108.85 20.72 108.73 21 108.45 21.2C108.09 21.48 107.53 21.64 106.93 21.64C106.49 21.64 106.05 21.56 105.65 21.4C105.57 21.44 105.53 21.52 105.49 21.56C105.09 22.12 104.73 22.84 104.73 23.52C104.73 23.88 104.81 24.2 105.01 24.48C105.21 24.76 105.57 24.92 106.01 24.96C106.17 25 106.33 25 106.53 25C109.53 25 115.33 22 116.37 21.08C117.17 20.4 118.09 19.92 119.01 19.92C119.45 19.92 119.85 20.04 120.25 20.24C120.41 20.04 120.53 19.88 120.65 19.76C120.81 19.56 121.09 19.56 121.25 19.68C121.45 19.84 121.45 20.08 121.33 20.28C120.61 21.24 120.21 22 120.21 22.48C120.21 22.68 120.29 22.84 120.41 22.96C120.65 23.2 121.09 23.28 121.73 23.28C122.33 23.28 123.05 23.2 123.85 23C125.53 22.56 127.17 21.8 128.05 21.04C128.13 20.96 128.25 20.96 128.33 20.96C128.45 20.96 128.57 21 128.65 21.12ZM107.65 20.24C107.33 20.24 106.85 20.4 106.37 20.72C106.57 20.76 106.77 20.8 106.97 20.8C107.37 20.8 107.73 20.68 107.93 20.52C108.05 20.44 108.05 20.36 108.01 20.32C108.01 20.32 107.89 20.24 107.65 20.24ZM118.09 22.52C118.61 22 119.17 21.4 119.65 20.88C119.45 20.8 119.25 20.76 119.05 20.76C118.45 20.76 117.77 21 117.05 21.68L117.01 21.72C116.97 21.72 116.97 21.76 116.97 21.76C116.81 21.88 116.65 22.04 116.53 22.2C115.57 23.24 115.37 24.2 115.49 24.36C115.53 24.36 116.09 24.48 118.09 22.52ZM138.613 21.08C138.653 21.16 138.693 21.24 138.693 21.32C138.693 21.44 138.653 21.56 138.533 21.64C134.813 24.6 131.573 26.12 129.413 26.12C127.813 26.12 126.853 25.24 126.853 23.48C126.853 21.96 127.533 19.76 129.173 16.84C128.573 16.8 127.973 16.8 127.413 16.8C126.493 16.8 125.693 16.84 125.133 17.08C125.093 17.08 125.053 17.12 124.973 17.12C124.813 17.12 124.653 17 124.573 16.84V16.72C124.573 16.56 124.653 16.36 124.813 16.32C125.533 16.04 126.533 15.96 127.573 15.96C128.293 15.96 129.013 16 129.653 16.04C130.293 15 131.053 13.96 131.773 12.76C131.893 12.56 132.133 12.52 132.333 12.64C132.533 12.76 132.573 13.04 132.453 13.24C131.813 14.32 131.133 15.2 130.613 16.04C131.733 16.08 132.813 16 133.693 15.84H133.773C133.973 15.84 134.133 16 134.213 16.16V16.24C134.213 16.44 134.053 16.64 133.893 16.68C132.773 16.92 131.453 16.92 130.133 16.88C128.173 20.24 127.653 22.28 127.653 23.48C127.653 24.4 127.973 24.84 128.173 25C128.493 25.28 128.973 25.4 129.533 25.4C131.493 25.4 134.733 23.76 138.013 21C138.093 20.96 138.213 20.92 138.293 20.92C138.413 20.92 138.533 20.96 138.613 21.08ZM136.636 28.36C136.156 28.36 135.876 28.12 135.796 28C135.676 27.84 135.636 27.64 135.636 27.4C135.636 25.76 139.116 23.32 139.116 22.8C139.116 22.68 138.916 22.44 137.876 21.88C137.236 21.56 136.996 21.04 136.996 20.56C136.996 19.52 138.076 18.4 138.956 18.4C139.396 18.4 139.716 18.68 139.716 19.08C139.716 19.44 139.436 20.04 138.236 21.12C139.516 21.8 139.956 22.24 139.956 22.88C139.956 23.96 138.276 24.72 136.636 26.88C136.436 27.12 136.436 27.32 136.436 27.4V27.48C136.956 28.12 144.716 23.16 147.356 21.04C147.436 20.96 147.556 20.92 147.676 20.92C147.796 20.92 147.876 20.96 147.956 21.08C148.116 21.24 148.076 21.52 147.916 21.64C145.996 23.08 138.516 28.36 136.636 28.36ZM148.431 19.36C148.151 19.36 147.951 19.12 147.951 18.88C147.951 18.6 148.151 18.4 148.431 18.4C148.671 18.4 148.911 18.6 148.911 18.88C148.911 19.12 148.671 19.36 148.431 19.36ZM147.991 24.92C147.151 24.92 146.511 24.76 146.071 24.32C145.791 24.04 145.671 23.76 145.671 23.36C145.671 22.72 146.071 21.84 146.671 20.84C146.751 20.72 146.871 20.68 146.991 20.68C147.071 20.68 147.151 20.72 147.231 20.76C147.351 20.88 147.431 21 147.431 21.12C147.431 21.2 147.391 21.28 147.351 21.36C146.791 22.08 146.471 22.8 146.471 23.28C146.471 23.44 146.511 23.6 146.631 23.72C146.911 24 147.391 24.12 147.991 24.12C150.391 24.12 154.791 22.16 155.911 21.04C156.071 20.88 156.351 20.92 156.511 21.08C156.671 21.24 156.631 21.52 156.471 21.68C155.431 22.72 150.871 24.92 147.991 24.92ZM168.006 21.08C168.046 21.16 168.086 21.24 168.086 21.32C168.086 21.48 168.006 21.6 167.886 21.68C166.686 22.4 164.526 22.64 161.366 23.68C161.406 27.84 155.086 37.16 150.966 37.16C149.366 37.16 148.606 36.24 148.606 34.88C148.606 31.64 152.806 25.84 160.486 23.08C160.286 22.28 159.686 22.04 158.926 22.04C158.566 22.04 158.126 22.12 157.726 22.2C157.646 22.24 157.606 22.28 157.566 22.28H157.406C157.206 22.28 157.046 22.16 156.966 21.96C156.926 21.84 156.966 21.72 157.046 21.64C157.086 21.56 157.166 21.52 157.246 21.48C159.406 20.36 160.406 19.32 160.406 18.76C160.406 18.6 160.366 18.48 160.206 18.44C160.086 18.4 160.006 18.36 159.886 18.36C158.686 18.36 157.166 20.44 155.646 21.68C155.566 21.76 155.486 21.76 155.406 21.76C155.286 21.76 155.166 21.72 155.046 21.6C154.966 21.52 154.926 21.44 154.926 21.36C154.926 21.24 155.006 21.12 155.086 21.04C156.406 19.72 158.206 17.56 159.846 17.56C160.686 17.56 161.246 18.08 161.246 18.84C161.246 19.52 160.766 20.4 159.526 21.24C160.366 21.4 161.006 21.84 161.246 22.8C164.206 21.88 166.486 21.68 167.406 21.04C167.486 20.96 167.566 20.92 167.646 20.92C167.806 20.92 167.926 21 168.006 21.08ZM150.966 36.28C154.446 36.28 160.286 27.84 160.526 23.96C153.406 26.6 149.406 32.08 149.406 34.72C149.406 35.68 149.926 36.28 150.966 36.28Z" fill="#888888"/>
</svg>
