<svg width="49" height="49" viewBox="0 0 49 49" fill="none" xmlns="http://www.w3.org/2000/svg">
<path d="M17.2305 40.5399C19.3596 42.3028 21.922 43.4259 24.8591 43.6186C27.1733 43.7704 29.5894 43.7701 31.8989 43.6186C32.6941 43.5665 33.561 43.3792 34.3076 43.0757C35.1381 42.7382 35.5536 42.5693 35.7647 42.5949C35.9758 42.6205 36.282 42.8434 36.8946 43.2891C37.9745 44.075 39.3351 44.6395 41.3528 44.591C42.373 44.5665 42.8832 44.5543 43.1115 44.17C43.3399 43.7858 43.0555 43.2539 42.4866 42.1901C41.6977 40.7146 41.1978 39.0255 41.9552 37.6722C43.2598 35.739 44.3679 33.4497 44.5298 30.9771C44.6168 29.6485 44.6168 28.2727 44.5298 26.9441C44.4219 25.2967 44.022 23.7305 43.3812 22.2969" stroke="#FBFAFA" stroke-width="1.77981" stroke-linecap="round" stroke-linejoin="round"/>
<path d="M25.0241 35.4455C32.2312 34.9708 37.9721 29.2026 38.4445 21.9611C38.5369 20.544 38.5369 19.0765 38.4445 17.6594C37.9721 10.4179 32.2312 4.64966 25.0241 4.17503C22.5653 4.01311 19.9982 4.01344 17.5444 4.17503C10.3372 4.64966 4.5964 10.4179 4.12402 17.6594C4.03158 19.0765 4.03158 20.544 4.12402 21.9611C4.29607 24.5986 5.47342 27.0406 6.8595 29.1026C7.66429 30.5461 7.13317 32.3479 6.29489 33.9217C5.69048 35.0564 5.38827 35.6238 5.63092 36.0336C5.87357 36.4435 6.41558 36.4566 7.49961 36.4827C9.64338 36.5344 11.089 35.9323 12.2364 35.094C12.8872 34.6185 13.2127 34.3808 13.4369 34.3535C13.6612 34.3262 14.1026 34.5063 14.9851 34.8664C15.7784 35.1901 16.6994 35.3898 17.5444 35.4455C19.9982 35.6071 22.5653 35.6074 25.0241 35.4455Z" stroke="#FBFAFA" stroke-width="1.77981" stroke-linejoin="round"/>
<path d="M21.7877 19.637H21.8056M29.7516 19.637H29.7695M13.8237 19.637H13.8416" stroke="#FBFAFA" stroke-width="2.37308" stroke-linecap="round" stroke-linejoin="round"/>
</svg>
