<svg width="30" height="24" viewBox="0 0 30 24" fill="none" xmlns="http://www.w3.org/2000/svg">
<g clip-path="url(#clip0_4115_1002)">
<path d="M11.1064 -0.0130615C11.1155 -0.0128964 11.313 -0.00297785 11.5049 0.010376C11.6021 0.0171446 11.7 0.0245114 11.7725 0.0328369C11.8082 0.0369514 11.8397 0.0417341 11.8623 0.0465088C11.8729 0.0487322 11.8851 0.0518365 11.8955 0.0562744C11.8999 0.0581667 11.9107 0.063481 11.9199 0.072876C11.9249 0.0780446 11.932 0.0871629 11.9355 0.10022C11.9375 0.107455 11.9382 0.114673 11.9375 0.121704L11.9316 0.142212C11.9157 0.175311 11.8853 0.195333 11.8584 0.207642C11.83 0.220525 11.7952 0.229436 11.7598 0.235962C11.6887 0.249017 11.6005 0.255077 11.5137 0.25647C11.4263 0.257861 11.3371 0.255262 11.2637 0.252563C11.1889 0.249813 11.1332 0.246719 11.1064 0.246704C9.35692 0.246704 7.87875 0.52782 6.63086 1.87561C5.27909 3.33657 4.77535 5.45076 5.21484 7.38147C5.65442 9.30336 7.05147 11.0012 8.96973 11.568C9.50113 11.7244 10.0711 11.7643 10.6494 11.7643C10.9383 11.7643 11.2284 11.7537 11.5166 11.7438C11.8047 11.7339 12.0919 11.7242 12.3711 11.7242C12.3833 11.7246 12.5793 11.7344 12.7695 11.7477C12.8665 11.7544 12.9637 11.7618 13.0361 11.7701C13.0721 11.7743 13.1042 11.779 13.127 11.7838C13.1375 11.7861 13.1498 11.7891 13.1602 11.7936C13.1646 11.7955 13.1754 11.7999 13.1846 11.8092C13.1896 11.8143 13.1966 11.8235 13.2002 11.8365C13.2012 11.8404 13.2009 11.8445 13.2012 11.8483L13.2021 11.8492C13.2028 11.8596 13.2004 11.8696 13.1963 11.8785L13.1934 11.8776C13.1769 11.909 13.1483 11.9282 13.1221 11.9401C13.0937 11.9529 13.0598 11.9619 13.0244 11.9684C12.9533 11.9815 12.8652 11.9875 12.7783 11.9889C12.6909 11.9903 12.6018 11.9877 12.5283 11.985C12.4537 11.9822 12.398 11.9792 12.3711 11.9791C11.0229 11.9791 9.58978 12.0921 8.24023 11.8883C5.89271 11.5335 4.07885 9.69255 3.55762 7.40491C2.99449 4.94258 3.96424 2.21777 6.13672 0.848267C7.66143 -0.11157 9.4074 -0.0130615 11.1064 -0.0130615Z" fill="#535353" stroke="#535353" stroke-width="0.118141"/>
<path d="M15.1787 -0.0439453C15.3768 -0.0370449 15.5674 -0.0266063 15.709 -0.0117188C15.7794 -0.00430514 15.8408 0.00382229 15.8848 0.0146484C15.9062 0.0199325 15.9274 0.0271734 15.9443 0.0361328C15.9528 0.040608 15.9637 0.046857 15.9727 0.0566406C15.9821 0.066958 15.9921 0.0836866 15.9922 0.105469V23.6182H18.2803C18.8335 23.6182 19.4012 23.6729 19.9404 23.6182C21.2834 23.4791 22.537 22.5931 23.3311 21.5322C24.9745 19.3359 24.943 16.1128 23.2451 13.9561C22.4448 12.9414 21.225 12.1226 19.9229 11.9834C19.5937 11.9485 19.2542 11.9482 18.9121 11.957C18.5714 11.9658 18.2248 11.9834 17.8896 11.9834C17.8777 11.9831 17.6815 11.9742 17.4912 11.9609C17.3942 11.9542 17.297 11.9458 17.2246 11.9375C17.1887 11.9334 17.1565 11.9286 17.1338 11.9238C17.1232 11.9216 17.111 11.9185 17.1006 11.9141C17.0961 11.9122 17.0854 11.9078 17.0762 11.8984C17.0712 11.8933 17.0642 11.8842 17.0605 11.8711C17.0566 11.8565 17.0586 11.8417 17.0645 11.8291V11.8281C17.0805 11.7948 17.1116 11.775 17.1387 11.7627C17.167 11.7499 17.201 11.7409 17.2363 11.7344C17.3075 11.7213 17.3956 11.7162 17.4824 11.7148C17.5699 11.7134 17.6589 11.716 17.7324 11.7188C17.8071 11.7215 17.8628 11.7246 17.8896 11.7246C18.759 11.7246 19.6755 11.676 20.5684 11.7363C21.4632 11.7968 22.3437 11.9659 23.1484 12.4062H23.1475L23.1504 12.4082L23.1523 12.4092C25.4096 13.6444 26.3706 16.1629 26.126 18.5195C25.8813 20.8768 24.4287 23.0857 21.8447 23.6963C20.5693 23.9963 19.1623 23.877 17.8789 23.877H13.874C13.8668 23.8769 13.6684 23.8679 13.4756 23.8545C13.3783 23.8477 13.2805 23.8394 13.208 23.8311C13.1722 23.8269 13.1408 23.8222 13.1182 23.8174C13.1076 23.8152 13.0954 23.8121 13.085 23.8076C13.0806 23.8057 13.0698 23.8014 13.0605 23.792C13.0555 23.7869 13.0486 23.7778 13.0449 23.7646C13.041 23.7502 13.0421 23.7352 13.0479 23.7227L13.0488 23.7217C13.0648 23.6886 13.0951 23.6685 13.1221 23.6562C13.1503 23.6434 13.1844 23.6344 13.2197 23.6279C13.2908 23.6149 13.3791 23.6098 13.4658 23.6084C13.5532 23.607 13.6423 23.6096 13.7158 23.6123C13.7909 23.6151 13.8473 23.6182 13.874 23.6182H14.3291V0.197266C14.2087 0.197415 14.0106 0.198288 13.8311 0.194336C13.7245 0.191987 13.6229 0.187893 13.5479 0.181641C13.5107 0.178542 13.4775 0.174987 13.4531 0.169922C13.4416 0.167519 13.4285 0.164353 13.417 0.15918C13.4115 0.156654 13.4026 0.152053 13.3945 0.144531C13.3903 0.140482 13.3849 0.133901 13.3809 0.125977L13.374 0.0966797L13.3838 0.0615234C13.3893 0.0522209 13.3961 0.0455234 13.4014 0.0410156C13.4123 0.0316023 13.4248 0.0250657 13.4355 0.0205078C13.4574 0.0112029 13.4855 0.00334125 13.5156 -0.00292969C13.577 -0.0156825 13.6594 -0.0259893 13.7451 -0.0341797C13.9172 -0.0506071 14.1125 -0.0585933 14.2051 -0.0585938C14.3486 -0.0585938 14.7816 -0.057774 15.1787 -0.0439453Z" fill="#535353" stroke="#535353" stroke-width="0.118141"/>
</g>
<defs>
<clipPath id="clip0_4115_1002">
<rect width="29.5353" height="24" fill="white" transform="translate(0.232422)"/>
</clipPath>
</defs>
</svg>
