<svg width="23" height="30" viewBox="0 0 23 30" fill="none" xmlns="http://www.w3.org/2000/svg">
<path d="M15.8694 22.9942L16.1006 27.6816L11.3592 24.3867L6.59125 27.6848L6.82256 22.9942H4.82013L4.475 29.9942H6.76825L11.3566 26.8204L15.9236 29.9942H18.217L17.8719 22.9942H15.8694ZM21.3091 8.67631L21.1719 5.67294L18.6398 4.0525L17.019 1.52006L14.0156 1.38256L11.346 0L8.67644 1.38288L5.673 1.52038L4.05225 4.0525L1.52006 5.67294L1.38294 8.67631L0 11.3459L1.38294 14.0156L1.52044 17.0189L4.05225 18.6394L5.67275 21.1719L8.67619 21.3091L11.346 22.6919L14.0156 21.3091L17.019 21.1719L18.6395 18.6394L21.1719 17.0192L21.3091 14.0159L22.692 11.3462L21.3091 8.67631ZM19.3312 13.4856L19.221 15.8928L17.1913 17.1915L15.8926 19.2212L13.4854 19.3312L11.346 20.4395L9.20638 19.3312L6.79919 19.2212L5.50044 17.1915L3.471 15.8928L3.36106 13.4856L2.25225 11.3459L3.36081 9.20669L3.471 6.79919L5.50044 5.50044L6.79919 3.47081L9.20638 3.36081L11.346 2.25244L13.4856 3.36075L15.8928 3.47075L17.1916 5.50038L19.221 6.79919L19.3309 9.20638L20.4398 11.3459L19.3312 13.4856Z" fill="#725A58"/>
</svg>
