<svg width="72" height="72" viewBox="0 0 72 72" fill="none" xmlns="http://www.w3.org/2000/svg">
<g opacity="0.8">
<rect width="71.1924" height="71.1924" fill="#191919"/>
<path d="M29.0957 52.4054C31.2248 54.1683 33.7872 55.2914 36.7244 55.4841C39.0385 55.6359 41.4547 55.6356 43.7641 55.4841C44.5594 55.4319 45.4262 55.2447 46.1728 54.9412C47.0034 54.6036 47.4189 54.4348 47.6299 54.4604C47.841 54.486 48.1473 54.7089 48.7598 55.1546C49.8398 55.9405 51.2003 56.505 53.218 56.4565C54.2382 56.432 54.7484 56.4198 54.9768 56.0355C55.2051 55.6512 54.9207 55.1193 54.3518 54.0555C53.5629 52.5801 53.063 50.891 53.8205 49.5376C55.125 47.6045 56.2331 45.3151 56.395 42.8425C56.482 41.514 56.482 40.1382 56.395 38.8096C56.2871 37.1621 55.8872 35.596 55.2465 34.1624" stroke="#FBFAFA" stroke-width="1.77981" stroke-linecap="round" stroke-linejoin="round"/>
<path d="M36.8893 47.3109C44.0965 46.8363 49.8373 41.0681 50.3097 33.8266C50.4021 32.4095 50.4021 30.9419 50.3097 29.5248C49.8373 22.2833 44.0965 16.5151 36.8893 16.0405C34.4305 15.8786 31.8634 15.8789 29.4096 16.0405C22.2025 16.5151 16.4616 22.2833 15.9893 29.5248C15.8968 30.9419 15.8968 32.4095 15.9893 33.8266C16.1613 36.464 17.3387 38.906 18.7247 40.968C19.5295 42.4116 18.9984 44.2134 18.1601 45.7871C17.5557 46.9219 17.2535 47.4892 17.4962 47.8991C17.7388 48.309 18.2808 48.322 19.3648 48.3482C21.5086 48.3999 22.9542 47.7978 24.1017 46.9595C24.7525 46.484 25.0779 46.2463 25.3022 46.219C25.5264 46.1917 25.9678 46.3718 26.8504 46.7319C27.6436 47.0555 28.5646 47.2553 29.4096 47.3109C31.8634 47.4725 34.4305 47.4729 36.8893 47.3109Z" stroke="#FBFAFA" stroke-width="1.77981" stroke-linejoin="round"/>
<path d="M33.6529 31.5024H33.6708M41.6169 31.5024H41.6347M25.689 31.5024H25.7068" stroke="#FBFAFA" stroke-width="2.37308" stroke-linecap="round" stroke-linejoin="round"/>
</g>
</svg>
