<svg width="97" height="100" viewBox="0 0 97 100" fill="none" xmlns="http://www.w3.org/2000/svg">
<path d="M39.354 9.1167C39.3627 9.1167 39.8048 9.13825 40.2388 9.16846C40.4561 9.18358 40.6726 9.20087 40.8325 9.21924C40.9122 9.22839 40.9789 9.23786 41.0249 9.24756C41.0473 9.25228 41.0667 9.25729 41.0806 9.26318C41.0871 9.26597 41.0963 9.27007 41.103 9.27686C41.1066 9.28047 41.1106 9.2865 41.1128 9.29443L41.1108 9.31982C41.0901 9.36295 41.0468 9.39474 40.9946 9.41846C40.9418 9.44247 40.8746 9.46025 40.7993 9.47412C40.6484 9.5019 40.4578 9.51399 40.2651 9.51709C40.0721 9.52019 39.8753 9.51432 39.7114 9.5083C39.5466 9.50225 39.4162 9.49561 39.354 9.49561C35.4286 9.49565 32.0876 10.1275 29.2681 13.1733C26.2204 16.4674 25.0877 21.2296 26.0776 25.5786C27.0676 29.908 30.2143 33.7383 34.5454 35.0181C35.748 35.3722 37.0349 35.4604 38.3325 35.4604C38.9811 35.4604 39.6321 35.4387 40.2769 35.4165C40.9216 35.3943 41.5605 35.3726 42.1831 35.3726C42.1983 35.3729 42.6363 35.3934 43.0669 35.4233C43.2841 35.4385 43.5007 35.4558 43.6606 35.4741C43.7402 35.4833 43.807 35.4928 43.853 35.5024C43.8757 35.5072 43.8957 35.5131 43.9097 35.519C43.9161 35.5218 43.9246 35.526 43.9312 35.5327C43.9347 35.5363 43.9388 35.5424 43.9409 35.5503L43.9399 35.5513L43.9419 35.5522V35.562H43.9399C43.9396 35.5664 43.9408 35.5708 43.939 35.5747L43.9331 35.5728C43.911 35.6117 43.8716 35.6414 43.8228 35.6636C43.7698 35.6876 43.7028 35.7063 43.6274 35.7202C43.4765 35.748 43.2859 35.7591 43.0933 35.7622C42.9003 35.7653 42.7034 35.7604 42.5396 35.7544C42.3751 35.7484 42.2454 35.7417 42.1831 35.7417C39.1559 35.7417 35.9667 35.9932 32.9575 35.5386C27.7507 34.7516 23.7236 30.6683 22.5659 25.5874C21.3145 20.1164 23.4703 14.0655 28.2905 11.0269L28.6089 10.8345C31.9131 8.91217 35.6611 9.11668 39.354 9.1167Z" fill="#191919" stroke="#191919" stroke-width="0.0631773"/>
<path d="M46.2875 9.01367C46.6085 9.01367 47.5749 9.01602 48.4613 9.04688C48.9045 9.06231 49.3286 9.08421 49.642 9.11719C49.7983 9.13364 49.9284 9.15327 50.0199 9.17578C50.0652 9.18694 50.1031 9.19959 50.1302 9.21387C50.1438 9.22103 50.1569 9.22986 50.1664 9.24023C50.176 9.25084 50.184 9.26514 50.184 9.28223V61.9785H55.4047C56.6283 61.9785 57.916 62.1017 59.1283 61.9785C62.1676 61.6636 64.9936 59.6605 66.7816 57.2715C70.4849 52.3221 70.4157 45.0618 66.5892 40.2012C64.7865 37.9159 62.0344 36.0658 59.0883 35.751C58.345 35.6722 57.5804 35.6726 56.8138 35.6924C56.0481 35.7121 55.2789 35.751 54.5306 35.751C54.5215 35.751 54.0797 35.7304 53.6459 35.7002C53.4289 35.6851 53.2129 35.6678 53.0531 35.6494C52.9733 35.6403 52.9058 35.6308 52.8597 35.6211C52.8373 35.6163 52.8179 35.6104 52.8041 35.6045C52.7976 35.6017 52.7892 35.5975 52.7826 35.5908C52.779 35.5872 52.774 35.5812 52.7719 35.5732C52.7696 35.5647 52.7713 35.5563 52.7748 35.5488V35.5479C52.7956 35.5049 52.8389 35.4739 52.891 35.4502C52.9439 35.4262 53.011 35.4074 53.0863 35.3936C53.2372 35.3658 53.4279 35.3547 53.6205 35.3516C53.8134 35.3485 54.0104 35.3534 54.1742 35.3594C54.3388 35.3654 54.4685 35.3721 54.5306 35.3721C56.4829 35.3721 58.522 35.2639 60.515 35.3984C62.5085 35.5331 64.4605 35.911 66.2426 36.8857L66.2533 36.8906L66.2543 36.8916C71.2606 39.6311 73.3977 45.2212 72.8539 50.4619C72.3099 55.7031 69.0834 60.6022 63.3539 61.9561C60.5159 62.6235 57.3898 62.3574 54.5062 62.3574H45.5472C45.5385 62.3574 45.0965 62.3359 44.6625 62.3057C44.4452 62.2905 44.2286 62.2732 44.0687 62.2549C43.989 62.2457 43.9223 62.2363 43.8763 62.2266C43.854 62.2218 43.8346 62.2168 43.8207 62.2109C43.8142 62.2081 43.8049 62.2031 43.7982 62.1963C43.7948 62.1927 43.7906 62.1872 43.7885 62.1797C43.7861 62.171 43.7869 62.1619 43.7904 62.1543L43.8099 62.124C43.8332 62.0957 43.8674 62.0735 43.9066 62.0557C43.9595 62.0316 44.0266 62.0129 44.1019 61.999C44.2528 61.9712 44.4434 61.9601 44.6361 61.957C44.8291 61.9539 45.0259 61.9588 45.1898 61.9648C45.3546 61.9709 45.4851 61.9785 45.5472 61.9785H46.6654V9.38672C46.4172 9.38689 45.9074 9.38993 45.4515 9.37988C45.2136 9.37463 44.9893 9.36529 44.8246 9.35156C44.7426 9.34472 44.6737 9.33718 44.6254 9.32715C44.6017 9.32222 44.5813 9.31562 44.5658 9.30859C44.5581 9.30508 44.5491 9.3004 44.5424 9.29395C44.5355 9.28731 44.5277 9.27627 44.5277 9.26172C44.5279 9.23982 44.5411 9.2231 44.5541 9.21191C44.5674 9.20053 44.5851 9.19101 44.6049 9.18262C44.6447 9.16568 44.7003 9.15037 44.766 9.13672C44.8981 9.10929 45.0779 9.08659 45.2689 9.06836C45.651 9.03189 46.084 9.01367 46.2875 9.01367Z" fill="#191919" stroke="#191919" stroke-width="0.0631773"/>
<path d="M91.5306 82.3534L93.2174 78.314C93.46 77.7221 93.5814 77.3936 93.5814 77.3285C93.5814 77.0326 93.2529 76.8787 92.5959 76.8669V76.4585H95.1527V76.8669C94.7562 76.8846 94.4662 76.9912 94.2827 77.1865C94.0992 77.3759 93.8714 77.799 93.5991 78.456L90.3587 86.2774C90.0509 87.0231 89.7787 87.5292 89.5419 87.7955C89.3052 88.0678 89.0448 88.2039 88.7607 88.2039C88.376 88.2039 88.1836 88.0293 88.1836 87.6801C88.1836 87.2776 88.4914 86.9373 89.1069 86.6591C89.468 86.4993 89.7077 86.3632 89.826 86.2508C89.9503 86.1383 90.0716 85.9341 90.19 85.6382L90.8825 83.907L88.1481 78.0476C87.9054 77.5327 87.7042 77.2072 87.5444 77.0711C87.3846 76.9349 87.1124 76.8669 86.7277 76.8669V76.4585H90.0657V76.8669C89.4798 76.8846 89.1868 77.006 89.1868 77.2309C89.1868 77.3196 89.3022 77.6097 89.5331 78.1009L91.5306 82.3534Z" fill="#191919"/>
<path d="M86.4968 76.8667H84.304V81.2613C84.304 81.936 84.3336 82.3917 84.3928 82.6285C84.452 82.8593 84.5763 83.0457 84.7657 83.1878C84.961 83.3298 85.1681 83.4008 85.3871 83.4008C85.8133 83.4008 86.1832 83.1582 86.4968 82.6729L86.7809 82.8415C86.5975 83.2322 86.3252 83.5281 85.9642 83.7293C85.6091 83.9246 85.248 84.0223 84.8811 84.0223C84.4549 84.0223 84.0791 83.898 83.7536 83.6494C83.434 83.3949 83.2328 83.099 83.1499 82.7616C83.073 82.4243 83.0345 81.8324 83.0345 80.9861V76.8667H81.978V76.4584C82.4633 76.4465 82.8984 76.2423 83.2831 75.8458C83.6678 75.4492 83.9134 74.8929 84.0199 74.1768H84.304V76.4584H86.4968V76.8667Z" fill="#191919"/>
<path d="M79.9272 76.4585V81.2259C79.9272 82.019 79.939 82.5161 79.9627 82.7174C79.9864 82.9186 80.0722 83.0695 80.2202 83.1701C80.374 83.2708 80.6463 83.3211 81.0369 83.3211V83.7294C80.1373 83.7413 79.4803 83.836 79.066 84.0135H78.9595C78.7701 83.688 78.6695 83.1258 78.6577 82.3267C78.2966 82.889 77.8823 83.3122 77.4148 83.5963C76.9531 83.8804 76.4412 84.0224 75.8789 84.0224C75.3936 84.0224 74.9645 83.9129 74.5916 83.6939C74.2187 83.469 73.9613 83.1968 73.8192 82.8772C73.6831 82.5576 73.615 82.0752 73.615 81.4301V78.9532C73.615 78.1127 73.6002 77.6008 73.5707 77.4173C73.5411 77.2279 73.4464 77.0888 73.2866 77C73.1327 76.9113 72.8456 76.8669 72.4254 76.8669V76.4585H74.8935V81.5011C74.8935 81.9983 74.923 82.3593 74.9822 82.5842C75.0414 82.8091 75.1923 83.0074 75.435 83.179C75.6777 83.3447 75.9588 83.4276 76.2784 83.4276C76.7341 83.4276 77.1691 83.2796 77.5834 82.9837C77.9977 82.6819 78.2789 82.3652 78.4268 82.0338C78.5807 81.6964 78.6577 81.217 78.6577 80.5956V78.9532C78.6577 78.1601 78.6488 77.6777 78.631 77.5061C78.6133 77.3344 78.5363 77.1865 78.4002 77.0622C78.27 76.932 77.9948 76.8669 77.5746 76.8669H77.3881V76.4585H79.9272Z" fill="#191919"/>
<path d="M71.5111 82.3978H71.8395C71.7863 83.4098 71.2891 83.9159 70.3481 83.9159C69.9456 83.9159 69.626 83.8093 69.3893 83.5963C69.1584 83.3832 69.0075 83.0666 68.9365 82.6464C68.3446 83.0666 67.8031 83.3832 67.3118 83.5963C66.8265 83.8093 66.3915 83.9159 66.0068 83.9159C65.5155 83.9159 65.0924 83.7738 64.7373 83.4897C64.3821 83.2057 64.2046 82.8298 64.2046 82.3623C64.2046 81.7526 64.5005 81.22 65.0924 80.7642C65.6902 80.3085 66.5128 79.8646 67.5604 79.4326L68.9365 78.8733V78.5182C68.9365 78.0151 68.9039 77.6511 68.8388 77.4262C68.7737 77.2013 68.605 77 68.3328 76.8225C68.0605 76.6449 67.7025 76.5562 67.2586 76.5562C66.3708 76.5562 65.8766 76.8521 65.776 77.4439C65.6813 78.0476 65.4327 78.3495 65.0302 78.3495C64.6692 78.3495 64.4887 78.1778 64.4887 77.8346C64.4887 77.4972 64.7284 77.1362 65.2078 76.7515C65.6872 76.3608 66.4329 76.1655 67.445 76.1655C68.1967 76.1655 68.7796 76.2839 69.1939 76.5206C69.6082 76.7574 69.8805 77.0267 70.0107 77.3285C70.1468 77.6304 70.2149 78.092 70.2149 78.7135V81.652C70.2149 82.3386 70.2504 82.7795 70.3214 82.9748C70.3924 83.1701 70.5463 83.2678 70.7831 83.2678C71.1737 83.2678 71.4164 82.9778 71.5111 82.3978ZM68.9365 79.2905L67.9688 79.6812C66.4418 80.3026 65.6783 81.0839 65.6783 82.0249C65.6783 82.3978 65.776 82.6996 65.9713 82.9304C66.1666 83.1553 66.4211 83.2678 66.7348 83.2678C67.013 83.2678 67.3355 83.1761 67.7025 82.9926C68.0694 82.8091 68.4807 82.5339 68.9365 82.1669V79.2905Z" fill="#191919"/>
<path d="M62.8107 78.9177H57.7414C57.7177 79.2669 57.7059 79.5273 57.7059 79.6989C57.7059 80.9773 57.9042 81.9391 58.3007 82.5842C58.7032 83.2234 59.3009 83.543 60.094 83.543C61.1712 83.543 61.9347 83.0606 62.3845 82.0959H62.8107C62.6213 82.6996 62.2454 83.1731 61.6832 83.5164C61.1209 83.8537 60.5083 84.0224 59.8455 84.0224C59.2299 84.0224 58.6469 83.8685 58.0965 83.5608C57.552 83.2471 57.1052 82.8062 56.756 82.238C56.4068 81.6698 56.2322 80.9803 56.2322 80.1694C56.2322 79.0212 56.5695 78.0683 57.2443 77.3108C57.919 76.5473 58.7624 76.1655 59.7744 76.1655C60.7273 76.1655 61.4642 76.4555 61.985 77.0356C62.5059 77.6156 62.7811 78.2429 62.8107 78.9177ZM61.257 78.5625C61.2748 78.4264 61.2837 78.3051 61.2837 78.1986C61.2837 77.6777 61.1298 77.2753 60.822 76.9912C60.5202 76.7012 60.1473 76.5562 59.7034 76.5562C58.6262 76.5562 57.9841 77.2249 57.7769 78.5625H61.257Z" fill="#191919"/>
<path d="M50.6925 77.2487C52.0596 77.3493 53.0747 77.6896 53.7376 78.2697C54.4004 78.8497 54.7319 79.5747 54.7319 80.4447C54.7319 81.2023 54.507 81.8563 54.0572 82.4067C53.6074 82.9512 53.0303 83.3093 52.326 83.481C51.6276 83.6467 50.6895 83.7295 49.5117 83.7295H44.7887V83.3212H45.2503C45.7653 83.3212 46.1204 83.2561 46.3157 83.1258C46.5169 82.9956 46.6442 82.7944 46.6974 82.5221C46.7507 82.244 46.7773 81.6018 46.7773 80.5957V74.7363C46.7773 73.7597 46.7477 73.1294 46.6886 72.8453C46.6353 72.5612 46.5169 72.3659 46.3334 72.2594C46.1559 72.1528 45.7623 72.0996 45.1527 72.0996H44.9219V71.6912L46.9016 71.6379L49.1566 71.5669C52.4473 71.5669 54.0927 72.5139 54.0927 74.4078C54.0927 75.1891 53.8086 75.8164 53.2404 76.2899C52.6781 76.7634 51.8288 77.083 50.6925 77.2487ZM48.5174 77.08C48.6654 77.086 48.7896 77.0889 48.8903 77.0889C50.1687 77.0889 51.0417 76.8877 51.5092 76.4852C51.9768 76.0828 52.2106 75.4317 52.2106 74.5321C52.2106 73.9047 52.1188 73.4194 51.9354 73.0761C51.7519 72.7329 51.4767 72.4695 51.1097 72.286C50.7428 72.0966 50.1154 72.0019 49.2276 72.0019C48.9968 72.0019 48.7601 72.0108 48.5174 72.0285V77.08ZM48.5174 77.515V80.1962C48.5174 81.3384 48.5381 82.0635 48.5795 82.3712C48.621 82.679 48.7305 82.9128 48.908 83.0726C49.0915 83.2324 49.4496 83.3123 49.9822 83.3123C50.9292 83.3123 51.6394 83.0696 52.1129 82.5843C52.5864 82.099 52.8231 81.371 52.8231 80.4003C52.8231 79.406 52.5538 78.6751 52.0153 78.2075C51.4826 77.734 50.5415 77.4973 49.1921 77.4973C48.979 77.4973 48.7541 77.5032 48.5174 77.515Z" fill="#191919"/>
<path d="M39.3022 82.3978H39.6307C39.5774 83.4098 39.0802 83.9159 38.1392 83.9159C37.7367 83.9159 37.4171 83.8093 37.1804 83.5963C36.9496 83.3832 36.7986 83.0666 36.7276 82.6464C36.1358 83.0666 35.5942 83.3832 35.103 83.5963C34.6176 83.8093 34.1826 83.9159 33.7979 83.9159C33.3067 83.9159 32.8835 83.7738 32.5284 83.4897C32.1733 83.2057 31.9957 82.8298 31.9957 82.3623C31.9957 81.7526 32.2917 81.22 32.8835 80.7642C33.4813 80.3085 34.304 79.8646 35.3516 79.4326L36.7276 78.8733V78.5182C36.7276 78.0151 36.6951 77.6511 36.63 77.4262C36.5649 77.2013 36.3962 77 36.1239 76.8225C35.8517 76.6449 35.4936 76.5562 35.0497 76.5562C34.1619 76.5562 33.6677 76.8521 33.5671 77.4439C33.4724 78.0476 33.2238 78.3495 32.8214 78.3495C32.4603 78.3495 32.2798 78.1778 32.2798 77.8346C32.2798 77.4972 32.5195 77.1362 32.9989 76.7515C33.4783 76.3608 34.2241 76.1655 35.2361 76.1655C35.9878 76.1655 36.5708 76.2839 36.9851 76.5206C37.3994 76.7574 37.6716 77.0267 37.8018 77.3285C37.938 77.6304 38.006 78.092 38.006 78.7135V81.652C38.006 82.3386 38.0415 82.7795 38.1126 82.9748C38.1836 83.1701 38.3375 83.2678 38.5742 83.2678C38.9648 83.2678 39.2075 82.9778 39.3022 82.3978ZM36.7276 79.2905L35.7599 79.6812C34.2329 80.3026 33.4694 81.0839 33.4694 82.0249C33.4694 82.3978 33.5671 82.6996 33.7624 82.9304C33.9577 83.1553 34.2122 83.2678 34.5259 83.2678C34.8041 83.2678 35.1266 83.1761 35.4936 82.9926C35.8605 82.8091 36.2719 82.5339 36.7276 82.1669V79.2905Z" fill="#191919"/>
<path d="M29.7141 71.5225V81.2348C29.7141 82.0101 29.723 82.4984 29.7408 82.6997C29.7644 82.9009 29.8503 83.0548 29.9982 83.1613C30.1462 83.2678 30.4096 83.3211 30.7883 83.3211H31.0014V83.7295H27.1129V83.3211H27.3615C27.7166 83.3211 27.9681 83.2738 28.1161 83.1791C28.27 83.0784 28.3617 82.9394 28.3913 82.7618C28.4209 82.5842 28.4357 82.0753 28.4357 81.2348V74.0438C28.4357 73.2803 28.3677 72.8009 28.2315 72.6056C28.0954 72.4043 27.764 72.3037 27.2372 72.3037V71.8953C27.5982 71.8953 28.0214 71.8539 28.5067 71.771C28.998 71.6882 29.3353 71.6053 29.5188 71.5225H29.7141Z" fill="#191919"/>
<path d="M23.6861 78.021C23.8873 77.4942 24.2128 77.0533 24.6626 76.6982C25.1183 76.3431 25.5622 76.1655 25.9943 76.1655C26.3849 76.1655 26.6927 76.2869 26.9176 76.5295C27.1425 76.7722 27.2549 77.0208 27.2549 77.2753C27.2549 77.4469 27.1958 77.5949 27.0774 77.7191C26.9649 77.8434 26.8259 77.9056 26.6601 77.9056C26.3642 77.9056 26.1393 77.6866 25.9854 77.2486C25.8789 76.9527 25.7191 76.8047 25.506 76.8047C25.2515 76.8047 24.9467 76.9793 24.5916 77.3285C24.2365 77.6718 24.0086 78.0299 23.908 78.4027C23.8074 78.7756 23.7571 79.2876 23.7571 79.9386V81.2348C23.7571 82.0101 23.766 82.4984 23.7837 82.6996C23.8074 82.9008 23.8932 83.0547 24.0412 83.1613C24.1891 83.2678 24.4525 83.3211 24.8313 83.3211H25.0799V83.7294H21.218V83.3211H21.4045C21.7596 83.3211 22.0111 83.2737 22.1591 83.179C22.313 83.0784 22.4047 82.9393 22.4343 82.7618C22.4639 82.5842 22.4787 82.0752 22.4787 81.2348V79.184C22.4787 78.4027 22.4668 77.9145 22.4432 77.7191C22.4254 77.5179 22.3425 77.364 22.1946 77.2575C22.0466 77.145 21.7832 77.0888 21.4045 77.0888H21.218V76.6893C21.7744 76.6242 22.5023 76.4496 23.402 76.1655C23.5736 76.6331 23.6683 77.2516 23.6861 78.021Z" fill="#191919"/>
<path d="M20.1439 82.3978H20.4723C20.4191 83.4098 19.9219 83.9159 18.9809 83.9159C18.5784 83.9159 18.2588 83.8093 18.0221 83.5963C17.7912 83.3832 17.6403 83.0666 17.5693 82.6464C16.9774 83.0666 16.4359 83.3832 15.9446 83.5963C15.4593 83.8093 15.0243 83.9159 14.6396 83.9159C14.1484 83.9159 13.7252 83.7738 13.3701 83.4897C13.015 83.2057 12.8374 82.8298 12.8374 82.3623C12.8374 81.7526 13.1333 81.22 13.7252 80.7642C14.323 80.3085 15.1456 79.8646 16.1932 79.4326L17.5693 78.8733V78.5182C17.5693 78.0151 17.5367 77.6511 17.4716 77.4262C17.4065 77.2013 17.2379 77 16.9656 76.8225C16.6933 76.6449 16.3353 76.5562 15.8914 76.5562C15.0036 76.5562 14.5094 76.8521 14.4088 77.4439C14.3141 78.0476 14.0655 78.3495 13.663 78.3495C13.302 78.3495 13.1215 78.1778 13.1215 77.8346C13.1215 77.4972 13.3612 77.1362 13.8406 76.7515C14.32 76.3608 15.0657 76.1655 16.0778 76.1655C16.8295 76.1655 17.4124 76.2839 17.8267 76.5206C18.241 76.7574 18.5133 77.0267 18.6435 77.3285C18.7796 77.6304 18.8477 78.092 18.8477 78.7135V81.652C18.8477 82.3386 18.8832 82.7795 18.9542 82.9748C19.0253 83.1701 19.1791 83.2678 19.4159 83.2678C19.8065 83.2678 20.0492 82.9778 20.1439 82.3978ZM17.5693 79.2905L16.6016 79.6812C15.0746 80.3026 14.3111 81.0839 14.3111 82.0249C14.3111 82.3978 14.4088 82.6996 14.6041 82.9304C14.7994 83.1553 15.0539 83.2678 15.3676 83.2678C15.6458 83.2678 15.9683 83.1761 16.3353 82.9926C16.7022 82.8091 17.1136 82.5339 17.5693 82.1669V79.2905Z" fill="#191919"/>
<path d="M10.5558 79.2107H10.9375V83.4277H10.5558C10.4492 82.9483 10.2569 82.5251 9.97869 82.1582C8.91927 83.3537 7.56688 83.9515 5.92152 83.9515C4.18146 83.9515 2.75805 83.4011 1.65128 82.3002C0.550426 81.1994 0 79.7434 0 77.9323C0 76.7427 0.254498 75.6241 0.763494 74.5765C1.27249 73.523 1.98272 72.7417 2.89418 72.2327C3.80563 71.7237 4.80587 71.4692 5.89489 71.4692C6.79451 71.4692 7.60831 71.6557 8.33629 72.0285C9.07019 72.3955 9.61766 72.8039 9.97869 73.2537C10.2332 72.7506 10.3871 72.2298 10.4403 71.6912H10.831L10.9375 76.2544H10.5558C10.2894 74.6327 9.74491 73.5052 8.92223 72.8719C8.10547 72.2387 7.18217 71.922 6.15234 71.922C4.89169 71.922 3.88849 72.434 3.14276 73.4579C2.40294 74.4818 2.03303 75.9466 2.03303 77.8524C2.03303 79.6576 2.43845 81.0425 3.24929 82.0072C4.06013 82.966 5.06925 83.4454 6.27663 83.4454C6.92176 83.4454 7.58168 83.2886 8.25639 82.9749C8.93111 82.6612 9.46378 82.1315 9.8544 81.3858C10.2509 80.6341 10.4847 79.9091 10.5558 79.2107Z" fill="#191919"/>
</svg>
