<svg width="126" height="41" viewBox="0 0 126 41" fill="none" xmlns="http://www.w3.org/2000/svg">
<path d="M56.833 0.128418C56.8407 0.128418 57.1729 0.143876 57.498 0.166504C57.661 0.177844 57.8238 0.190758 57.9443 0.20459C58.0043 0.211478 58.056 0.218534 58.0918 0.226074C58.109 0.229704 58.1258 0.234219 58.1387 0.239746C58.1444 0.242232 58.1545 0.247586 58.1631 0.256348C58.1678 0.261128 58.1746 0.269148 58.1777 0.280762L58.1738 0.317871C58.1543 0.358407 58.1155 0.386007 58.0742 0.404785C58.0318 0.424067 57.9785 0.438134 57.9209 0.44873C57.8057 0.469895 57.6614 0.47863 57.5166 0.480957C57.3711 0.483292 57.2227 0.478644 57.0996 0.474121C56.9752 0.46955 56.879 0.465332 56.833 0.465332C53.8919 0.465341 51.3955 0.937896 49.2881 3.21436C47.0085 5.6781 46.1607 9.24073 46.9014 12.4946C47.6421 15.7339 49.9964 18.5985 53.2344 19.5552C54.1327 19.8196 55.0943 19.8862 56.0664 19.8862C56.5524 19.8862 57.0407 19.8697 57.5244 19.853C58.0077 19.8364 58.4868 19.8198 58.9541 19.8198C58.9618 19.8198 59.294 19.8353 59.6191 19.8579C59.782 19.8692 59.9449 19.8822 60.0654 19.896C60.1254 19.9029 60.1771 19.9109 60.2129 19.9185C60.23 19.9221 60.2469 19.9256 60.2598 19.9312C60.2655 19.9336 60.2755 19.939 60.2842 19.9478C60.2889 19.9525 60.2956 19.9605 60.2988 19.9722C60.2995 19.9747 60.2975 19.9775 60.2979 19.98L60.2998 19.981V19.9878H60.2979C60.2976 19.9952 60.2989 20.0027 60.2959 20.0093L60.29 20.0073C60.2697 20.0445 60.2345 20.0706 60.1953 20.0884C60.1529 20.1076 60.1004 20.1217 60.043 20.1323C59.9276 20.1536 59.7827 20.1622 59.6377 20.1646C59.4923 20.1669 59.3438 20.1632 59.2207 20.1587C59.0964 20.1541 59 20.1489 58.9541 20.1489C56.6866 20.1489 54.2907 20.3379 52.0312 19.9966C48.1145 19.4045 45.0862 16.3334 44.2158 12.5132C43.2751 8.40018 44.896 3.85044 48.5215 1.56494C51.0649 -0.0362465 53.9769 0.128415 56.833 0.128418Z" fill="#191919" stroke="#191919" stroke-width="0.1"/>
<path d="M62.0333 0.050293C62.2742 0.0502936 62.9998 0.0515414 63.6652 0.074707C63.9975 0.0862842 64.316 0.103598 64.5519 0.128418C64.6694 0.140789 64.7685 0.155042 64.839 0.172363C64.8738 0.18092 64.9046 0.191364 64.9279 0.203613C64.9395 0.209734 64.9521 0.218149 64.962 0.229004C64.9722 0.240265 64.9816 0.256716 64.9816 0.277832V39.7739H68.8712C69.7926 39.7739 70.7536 39.8662 71.6613 39.7739C73.9315 39.5387 76.045 38.042 77.3829 36.2544C80.1533 32.5518 80.1017 27.1199 77.2394 23.4839C75.8906 21.7739 73.832 20.3909 71.631 20.1558C71.0754 20.0969 70.5033 20.097 69.9288 20.1118C69.3556 20.1266 68.7775 20.1567 68.2159 20.1567C68.2083 20.1567 67.876 20.1403 67.5509 20.1177C67.388 20.1063 67.2251 20.0934 67.1046 20.0796C67.0446 20.0727 66.9929 20.0656 66.9572 20.0581C66.9399 20.0545 66.9232 20.05 66.9103 20.0444C66.9045 20.042 66.8945 20.0366 66.8859 20.0278C66.8812 20.0231 66.8744 20.015 66.8712 20.0034C66.8678 19.9907 66.87 19.9773 66.8751 19.9663L66.9171 19.9146C66.9344 19.9005 66.9542 19.8887 66.9747 19.8794C67.0171 19.8602 67.0696 19.846 67.1271 19.8354C67.2424 19.8142 67.3874 19.8056 67.5323 19.8032C67.6778 19.8009 67.8262 19.8055 67.9493 19.8101C68.0736 19.8146 68.17 19.8188 68.2159 19.8188C69.6782 19.8188 71.2103 19.7383 72.7062 19.8394C74.2031 19.9405 75.6708 20.2241 77.0118 20.9575L77.0197 20.9614L77.0206 20.9624C80.7866 23.0232 82.3932 27.2269 81.9845 31.1655C81.5756 35.1048 79.1495 38.7906 74.839 39.8091C72.7066 40.3106 70.3568 40.1109 68.1974 40.1108H61.4777C61.4655 40.1106 61.1356 40.0943 60.8126 40.0718C60.6496 40.0604 60.4869 40.0475 60.3663 40.0337C60.3065 40.0268 60.2556 40.0197 60.2198 40.0122C60.2027 40.0086 60.1859 40.004 60.173 39.9985C60.1672 39.9961 60.1562 39.9917 60.1476 39.9829C60.1429 39.9781 60.1371 39.9692 60.1339 39.9575C60.1305 39.9449 60.1318 39.9323 60.1368 39.9214V39.9204C60.1564 39.8798 60.1961 39.8533 60.2374 39.8345C60.2798 39.8152 60.3323 39.8011 60.3898 39.7905C60.505 39.7693 60.6493 39.7606 60.7941 39.7583C60.9395 39.756 61.088 39.7596 61.2111 39.7642C61.3353 39.7687 61.4316 39.7739 61.4777 39.7739H62.2902V0.382324C62.0961 0.382538 61.7329 0.384634 61.4064 0.377441C61.228 0.373507 61.059 0.367285 60.9347 0.356934C60.8728 0.351774 60.8193 0.345276 60.7814 0.337402C60.7629 0.333567 60.7449 0.328293 60.7306 0.321777C60.7236 0.318554 60.7141 0.313725 60.7062 0.306152C60.7021 0.302188 60.6972 0.296665 60.6935 0.289551L60.6876 0.263184L60.6974 0.228027C60.7029 0.218566 60.7097 0.210941 60.7159 0.205566C60.7288 0.19451 60.745 0.185968 60.7609 0.179199C60.7932 0.165464 60.8371 0.153409 60.8868 0.143066C60.9873 0.122197 61.1232 0.10501 61.2667 0.0913086C61.5541 0.0638756 61.8798 0.050293 62.0333 0.050293Z" fill="#191919" stroke="#191919" stroke-width="0.1"/>
</svg>
